<svg xmlns="http://www.w3.org/2000/svg" viewBox="0 0 806.5 805.5"><defs><style>.cls-1,.cls-3{fill:#fff;}.cls-1,.cls-2{opacity:0.3;}.cls-4{fill:none;stroke:#21ce99;stroke-linecap:round;stroke-miterlimit:10;stroke-width:6px;}</style></defs><title>扫码</title><g id="图层_5_复制_2" data-name="图层 5_复制 2"><path class="cls-1" d="M1200.39,579.07a67.15,67.15,0,0,1-15.54-25.22c-12.44,14.51-27.63,45.6-16.23,57s42.49-3.8,57-16.23A67.15,67.15,0,0,1,1200.39,579.07Z" transform="translate(-863.06 -105.13)"/><path class="cls-1" d="M1340.4,438.94a22.23,22.23,0,1,0,0,31.43A22.08,22.08,0,0,0,1340.4,438.94Z" transform="translate(-863.06 -105.13)"/><path class="cls-1" d="M1380,439.42a2.49,2.49,0,0,1-3.52,0,2.39,2.39,0,0,1-.32-.39h0l-.14-.25a95.88,95.88,0,0,0-35.43-35.43l-.25-.14h0a2.39,2.39,0,0,1-.39-.32,2.49,2.49,0,0,1,0-3.52,2.56,2.56,0,0,1,.8-.54h0a30.13,30.13,0,0,1,39.8,39.71l-.13.29h0A2.48,2.48,0,0,1,1380,439.42Z" transform="translate(-863.06 -105.13)"/><path class="cls-1" d="M1373,464.41h0c.49-2.13.91-4.37,1.27-6.64a29.74,29.74,0,0,0-2.57-14.51c-1.24-2.18-4.09-6.54-4.09-6.54a96,96,0,0,0-26.17-25.79s-1.71-1.11-2.5-1.6a29.62,29.62,0,0,0-19.61-3.47l-.95.18a98.49,98.49,0,0,0-51.09,27.17,100.37,100.37,0,0,0-9.55,11.05l-64.3,86a25.25,25.25,0,0,0-3.1,19.26,61.25,61.25,0,0,0,2.28,6l0,.11a61.54,61.54,0,0,0,32.14,31.52s3.66,1.43,5.36,2h0a25.12,25.12,0,0,0,20.42-3.75l84.84-63.43a100.3,100.3,0,0,0,11-9.54A98.64,98.64,0,0,0,1373,464.41Zm-48.32,17.75a27.5,27.5,0,0,1,0-55h0a27.5,27.5,0,0,1,0,55Z" transform="translate(-863.06 -105.13)"/><path class="cls-1" d="M1249.24,593.72q4.19,2.5,8.44,4.88l1.05.59.06,0a9.06,9.06,0,0,0,10.17-1.83c.21-.21,1.06-1.29,1.27-1.6a300.09,300.09,0,0,0,20.55-33.13Z" transform="translate(-863.06 -105.13)"/><path class="cls-1" d="M1186.29,530.28q-2.5-4.19-4.88-8.44l-.6-1.08a9.06,9.06,0,0,1,1.82-10.2c.21-.21,1.29-1.06,1.6-1.27a300.09,300.09,0,0,1,33.13-20.55Z" transform="translate(-863.06 -105.13)"/><g class="cls-2"><path class="cls-3" d="M1376.82,465.27h0a102.54,102.54,0,0,1-27.57,49.89,104.15,104.15,0,0,1-11.48,9.91l-.43.32-37,27.66-6.11,11.44a305.28,305.28,0,0,1-20.82,33.56,25.74,25.74,0,0,1-1.68,2.08,13,13,0,0,1-9.2,3.79,12.87,12.87,0,0,1-5.37-1.17h0l-.18-.08-.11-.06-.74-.41-.35-.2-1.35-.77c-7.42,10.27-13.95,18.45-18.86,23.37,8.35,3.34,62.08,18.09,102.72-22.55C1368.37,572,1386.4,511.57,1376.82,465.27Z" transform="translate(-863.06 -105.13)"/></g><g class="cls-2"><path class="cls-3" d="M1177.4,441.17c-40.64,40.64-25.89,94.37-22.55,102.72,5-5,13.29-11.59,23.73-19.12l-.58-1-.37-.67-.1-.1-.26-.57a13,13,0,0,1,2.6-14.61,25.44,25.44,0,0,1,2.11-1.7,305.12,305.12,0,0,1,33.54-20.8l11.12-5.93,28-37.43a104.28,104.28,0,0,1,9.92-11.48,102.36,102.36,0,0,1,50.31-27.66C1268.46,392.9,1207.62,411,1177.4,441.17Z" transform="translate(-863.06 -105.13)"/></g><path class="cls-4" d="M866.06,203.63V138.54a30.5,30.5,0,0,1,30.41-30.41h65.09" transform="translate(-863.06 -105.13)"/><path class="cls-4" d="M1571.06,108.13h65.09a30.5,30.5,0,0,1,30.41,30.41v65.09" transform="translate(-863.06 -105.13)"/><path class="cls-4" d="M1666.56,812.13v65.09a30.5,30.5,0,0,1-30.41,30.41h-65.09" transform="translate(-863.06 -105.13)"/><path class="cls-4" d="M961.56,907.63H896.47a30.5,30.5,0,0,1-30.41-30.41V812.13" transform="translate(-863.06 -105.13)"/></g></svg>