<svg xmlns="http://www.w3.org/2000/svg" viewBox="0 0 505.76 366.28"><defs><style>.cls-1,.cls-2,.cls-3,.cls-4,.cls-7{fill:none;}.cls-1{stroke:#111;}.cls-1,.cls-2,.cls-3,.cls-4{stroke-miterlimit:10;}.cls-2,.cls-3,.cls-4,.cls-7{stroke:#bcb8b2;}.cls-3,.cls-7{stroke-width:0.5px;}.cls-4{stroke-dasharray:7.84 11.76;}.cls-5{fill:#bcb8b2;}.cls-6{fill:#21ce90;}.cls-7{stroke-linecap:round;stroke-linejoin:round;}</style></defs><title>1资源 2</title><g id="图层_2" data-name="图层 2"><g id="图层_6_复制" data-name="图层 6_复制"><line class="cls-1" y1="3.97" x2="505.76" y2="3.97"/><line class="cls-1" y1="362.31" x2="505.76" y2="362.31"/><line class="cls-1" y1="50.71" x2="505.76" y2="50.71"/><line class="cls-1" y1="66.29" x2="505.76" y2="66.29"/><line class="cls-1" y1="81.87" x2="505.76" y2="81.87"/><line class="cls-1" y1="97.45" x2="505.76" y2="97.45"/><line class="cls-1" y1="113.03" x2="505.76" y2="113.03"/><line class="cls-1" y1="128.61" x2="505.76" y2="128.61"/><line class="cls-1" y1="144.19" x2="505.76" y2="144.19"/><line class="cls-1" y1="159.77" x2="505.76" y2="159.77"/><line class="cls-1" y1="175.35" x2="505.76" y2="175.35"/><line class="cls-1" y1="190.93" x2="505.76" y2="190.93"/><line class="cls-1" y1="206.51" x2="505.76" y2="206.51"/><line class="cls-1" y1="222.09" x2="505.76" y2="222.09"/><line class="cls-1" y1="237.67" x2="505.76" y2="237.67"/><line class="cls-1" y1="253.25" x2="505.76" y2="253.25"/><line class="cls-1" y1="268.83" x2="505.76" y2="268.83"/><line class="cls-1" y1="284.41" x2="505.76" y2="284.41"/><line class="cls-1" y1="299.99" x2="505.76" y2="299.99"/><line class="cls-1" y1="315.57" x2="505.76" y2="315.57"/><line class="cls-1" y1="331.15" x2="505.76" y2="331.15"/><line class="cls-1" y1="19.55" x2="505.76" y2="19.55"/><line class="cls-1" y1="35.13" x2="505.76" y2="35.13"/><line class="cls-1" y1="346.73" x2="505.76" y2="346.73"/><line class="cls-1" x1="362.03" x2="362.03" y2="366.28"/><line class="cls-1" x1="3.4" x2="3.4" y2="366.28"/><line class="cls-1" x1="315.25" x2="315.25" y2="366.28"/><line class="cls-1" x1="299.66" x2="299.66" y2="366.28"/><line class="cls-1" x1="284.07" x2="284.07" y2="366.28"/><line class="cls-1" x1="268.47" x2="268.47" y2="366.28"/><line class="cls-1" x1="252.88" x2="252.88" y2="366.28"/><line class="cls-1" x1="237.29" x2="237.29" y2="366.28"/><line class="cls-1" x1="221.7" x2="221.7" y2="366.28"/><line class="cls-1" x1="206.1" x2="206.1" y2="366.28"/><line class="cls-1" x1="190.51" x2="190.51" y2="366.28"/><line class="cls-1" x1="174.92" x2="174.92" y2="366.28"/><line class="cls-1" x1="159.33" x2="159.33" y2="366.28"/><line class="cls-1" x1="143.73" x2="143.73" y2="366.28"/><line class="cls-1" x1="128.14" x2="128.14" y2="366.28"/><line class="cls-1" x1="112.55" x2="112.55" y2="366.28"/><line class="cls-1" x1="96.96" x2="96.96" y2="366.28"/><line class="cls-1" x1="81.36" x2="81.36" y2="366.28"/><line class="cls-1" x1="65.77" x2="65.77" y2="366.28"/><line class="cls-1" x1="50.18" x2="50.18" y2="366.28"/><line class="cls-1" x1="34.59" x2="34.59" y2="366.28"/><line class="cls-1" x1="346.44" x2="346.44" y2="366.28"/><line class="cls-1" x1="330.84" x2="330.84" y2="366.28"/><line class="cls-1" x1="502.36" x2="502.36" y2="366.28"/><line class="cls-1" x1="455.58" x2="455.58" y2="366.28"/><line class="cls-1" x1="439.99" x2="439.99" y2="366.28"/><line class="cls-1" x1="424.4" x2="424.4" y2="366.28"/><line class="cls-1" x1="408.81" x2="408.81" y2="366.28"/><line class="cls-1" x1="393.21" x2="393.21" y2="366.28"/><line class="cls-1" x1="377.62" x2="377.62" y2="366.28"/><line class="cls-1" x1="486.77" x2="486.77" y2="366.28"/><line class="cls-1" x1="471.18" x2="471.18" y2="366.28"/><line class="cls-1" x1="18.99" x2="18.99" y2="366.28"/></g><g id="图层_6_复制_3" data-name="图层 6_复制_3"><circle class="cls-2" cx="310.26" cy="167.5" r="17.5"/><polyline class="cls-3" points="295.61 161.56 309.87 151.7 294.46 166.57 313.21 151.97 294.74 170.41 316.29 152.89 295.58 173.33 318.99 154.33 297.46 176.74 321.63 156.54 300.12 179.59 323.31 158.61 303.01 181.5 324.87 161.52 306.06 182.7 325.76 164.55 310.25 182.81 325.58 168.38 316.64 181.91"/><circle class="cls-2" cx="364.51" cy="95.25" r="21.25"/><polyline class="cls-3" points="346.72 88.04 364.03 76.06 345.32 94.13 368.09 76.39 345.66 98.79 371.83 77.51 346.69 102.32 375.11 79.26 348.97 106.47 378.32 81.95 352.19 109.92 380.36 84.46 355.7 112.26 382.25 87.99 359.41 113.71 383.33 91.67 364.49 113.84 383.12 96.32 372.26 112.75"/><circle class="cls-2" cx="459.01" cy="208.75" r="16.75" transform="translate(-14.66 35.81) rotate(-4.4)"/><polyline class="cls-3" points="463.61 194.33 474.06 207.21 458.74 193.6 474.05 210.42 455.09 194.15 473.4 213.43 452.38 195.17 472.22 216.11 449.25 197.21 470.3 218.8 446.74 199.96 468.45 220.55 445.11 202.85 465.79 222.25 444.2 205.86 462.96 223.33 444.4 209.86 459.3 223.44 445.73 215.9"/><path class="cls-2" d="M322.26,180.23a30.78,30.78,0,0,0,3.87,1"/><path class="cls-4" d="M337.83,181.27c28.42-5,54-44.46,57.43-53.77,4-11,20-66-34-66-33,0-45,44-23,61,22.49,17.38,57.08,17.37,89,10,36.1-8.33,69.63,23.6,48.94,55.94"/><path class="cls-2" d="M472.75,193.2q-1.23,1.51-2.62,3"/><path class="cls-5" d="M476,149.35a6.42,6.42,0,0,1-2.27,1.69c1.49,1.06,4.58,2.24,5.56,1.06s-.72-4-2-5.29A6.42,6.42,0,0,1,476,149.35Z"/><path class="cls-5" d="M461.43,137.22a2.12,2.12,0,1,0,3-.27A2.11,2.11,0,0,0,461.43,137.22Z"/><path class="cls-5" d="M461.13,133.45a.24.24,0,0,1,0,.34l0,0h0l0,0a9.16,9.16,0,0,0-3.07,3.68v0h0l0,0a.24.24,0,0,1-.33,0l-.06-.07h0A2.88,2.88,0,0,1,461,133.4h0Z"/><path class="cls-5" d="M463.57,133.9h0l-.64-.06a2.84,2.84,0,0,0-1.36.37c-.2.14-.59.45-.59.45a9.17,9.17,0,0,0-2.23,2.71l-.13.25a2.83,2.83,0,0,0-.16,1.9l0,.09a9.41,9.41,0,0,0,3,4.63,9.59,9.59,0,0,0,1.13.81l8.74,5.39a2.41,2.41,0,0,0,1.86.13,5.85,5.85,0,0,0,.55-.27h0a5.88,5.88,0,0,0,2.73-3.33s.11-.36.14-.53h0a2.4,2.4,0,0,0-.53-1.91L469.37,137a9.59,9.59,0,0,0-1-1A9.43,9.43,0,0,0,463.57,133.9Zm2.1,4.45a2.63,2.63,0,0,1-5.23.47h0a2.63,2.63,0,0,1,5.23-.47Z"/><path class="cls-5" d="M476.94,144.58q.2-.42.39-.85l0-.11h0a.87.87,0,0,0-.26-1l-.16-.11a28.68,28.68,0,0,0-3.33-1.67Z"/><path class="cls-5" d="M471.44,151.11l-.76.54-.1.07a.87.87,0,0,1-1-.09l-.13-.14a28.68,28.68,0,0,1-2.24-3Z"/><path class="cls-5" d="M463.62,133.53h0a9.8,9.8,0,0,1,5,2.2,10,10,0,0,1,1,1l0,0,2.95,3.29,1.14.48a29.18,29.18,0,0,1,3.37,1.7l.21.14a1.24,1.24,0,0,1,.44.84,1.23,1.23,0,0,1-.07.52h0v0h0l0,.07,0,0-.06.13a19.92,19.92,0,0,1,2.39,1.6,9.7,9.7,0,0,0-3-9.59C473.85,133.43,467.95,132.23,463.62,133.53Z"/><path class="cls-5" d="M463,152.72A9.7,9.7,0,0,0,473,154a20.13,20.13,0,0,1-2-2.1l-.09.06-.06,0h0l-.05,0a1.24,1.24,0,0,1-1.41-.12,2.43,2.43,0,0,1-.18-.19,29.16,29.16,0,0,1-2.27-3l-.66-1-3.8-2.34a10,10,0,0,1-1.18-.85A9.78,9.78,0,0,1,458.2,140C457.66,144.47,459.89,150.1,463,152.72Z"/></g><g id="图层_6_复制_2" data-name="图层 6_复制_2"><path class="cls-6" d="M160.5,281.63a50.65,50.65,0,0,0,42.25,0,79,79,0,0,1-6.64,23.44c-4.26,9-9.4,13.92-14.49,13.92s-10.23-4.94-14.49-13.92a79,79,0,0,1-6.64-23.44M203.9,280a49.6,49.6,0,0,1-44.57,0c1.13,14.73,9.82,40,22.29,40s21.15-25.31,22.29-40Z"/><path class="cls-6" d="M181.56,133.08a16.19,16.19,0,1,1-11.45,4.74,16.21,16.21,0,0,1,11.45-4.74h0m0-1a17.19,17.19,0,1,0,17.19,17.19,17.07,17.07,0,0,0-17.19-17.19Z"/><path class="cls-6" d="M181.55,96a22.45,22.45,0,0,1,20.8,14.26l0,.09,0,.07a.93.93,0,0,1-.89,1.19h-.15l-.19-.05a75.14,75.14,0,0,0-39.26,0l-.19.05h-.15a.92.92,0,0,1-.92-.92,1,1,0,0,1,.05-.32l0,0,0,0A22.42,22.42,0,0,1,181.55,96m0-1a23.29,23.29,0,0,0-21.75,14.94v0a2,2,0,0,0-.14.74,1.92,1.92,0,0,0,1.92,1.92,1.85,1.85,0,0,0,.39,0h0l.22-.06a74.14,74.14,0,0,1,38.75,0l.22.06h0a1.85,1.85,0,0,0,.39,0,1.93,1.93,0,0,0,1.84-2.5h0l-.09-.23A23.3,23.3,0,0,0,181.55,95Z"/><path class="cls-6" d="M181.56,115.72A73,73,0,0,1,195,117s3.87.81,5.71,1.31a22,22,0,0,1,8.86,6.19c1,1.41,2,2.83,2.88,4.24A75.27,75.27,0,0,1,224,168.92a76.56,76.56,0,0,1-.81,11.11l-11.7,81a18.43,18.43,0,0,1-8.62,12.52c-1.19.61-3.9,1.8-3.9,1.8a46.59,46.59,0,0,1-34.06.33l-.1,0a46.36,46.36,0,0,1-4.38-2,18.53,18.53,0,0,1-8.34-11.54L140.26,180a76.61,76.61,0,0,1-.81-11.12,75.18,75.18,0,0,1,12.91-42.24l.4-.59a21.89,21.89,0,0,1,12-8.43c.69-.16,2.21-.49,2.21-.49h0a73.21,73.21,0,0,1,14.55-1.46h0m0,55.82A22.26,22.26,0,1,0,165.81,165a22.12,22.12,0,0,0,15.74,6.52m0-56.82h0a74.2,74.2,0,0,0-14.75,1.48s-1.54.33-2.24.5a22.91,22.91,0,0,0-12.62,8.82l-.42.61a76.15,76.15,0,0,0-13.08,42.79,77.61,77.61,0,0,0,.82,11.26l11.87,82.19A19.52,19.52,0,0,0,160,274.6a47.36,47.36,0,0,0,4.51,2l.09,0a47.59,47.59,0,0,0,34.81-.34s2.78-1.22,4-1.85h0a19.42,19.42,0,0,0,9.11-13.22l11.71-81.07a77.55,77.55,0,0,0,.82-11.25,76.27,76.27,0,0,0-11.74-40.74h0c-.9-1.43-1.89-2.89-2.94-4.33a23,23,0,0,0-9.34-6.52c-1.87-.51-5.82-1.34-5.82-1.34a74.06,74.06,0,0,0-13.66-1.27Zm0,55.82a21.26,21.26,0,0,1-15-36.3h0a21.26,21.26,0,1,1,15,36.3Z"/><path class="cls-6" d="M222.4,231.54A232.28,232.28,0,0,1,228,256.37c0,.26.16,1.22.16,1.4a6,6,0,0,1-3.92,5.63l-.53.15-.33.09c-1.91.54-3.86,1.07-5.81,1.57l4.86-33.67m-.33-4.69-5.73,39.7q3.66-.92,7.28-1.95l.9-.26,0,0a7,7,0,0,0,4.56-6.56c0-.23-.13-1.28-.18-1.57a232,232,0,0,0-6.87-29.35Z"/><path class="cls-6" d="M141.17,231.27,146,264.95c-1.95-.5-3.9-1-5.8-1.57l-.43-.12-.44-.13a6,6,0,0,1-3.91-5.62c0-.19.12-1.14.16-1.41a232.22,232.22,0,0,1,5.56-24.82m.33-4.69a232,232,0,0,0-6.87,29.35c0,.28-.18,1.33-.18,1.57a7,7,0,0,0,4.59,6.57l.92.26q3.62,1,7.28,1.95l-5.73-39.7Z"/><path class="cls-6" d="M219.05,130c13.06,9.58,25.11,23.68,34.26,40.17,9.85,17.78,15.28,36.34,15.28,52.25,0,18.53-6.48,35.09-19.26,49.21a83.68,83.68,0,0,1-22.6,17.71,172.4,172.4,0,0,0-2.31-20.8l.3-.08.3-.09.66-.19.12,0,.16-.06a10.89,10.89,0,0,0,3.94-2.53,11.13,11.13,0,0,0,3.25-7.81,20.49,20.49,0,0,0-.23-2.22,237.06,237.06,0,0,0-7-29.86l-2.85-9.38,5.07-35.13.06-.41a81.55,81.55,0,0,0,.87-11.84,80.33,80.33,0,0,0-10-38.92m-3.19-3.44h0a79.29,79.29,0,0,1,12.2,42.35,80.54,80.54,0,0,1-.85,11.69l-.06.41L222,216.37,225,226a236.05,236.05,0,0,1,7,29.73,19.91,19.91,0,0,1,.22,2.06,10.06,10.06,0,0,1-3,7.1,10,10,0,0,1-3.58,2.3h0l-.14.05-.09,0-.63.18-.3.09-1.16.32c1.56,9.67,2.46,17.71,2.46,23.09,6.39-2.74,43.83-24,43.83-68.49,0-32.89-23.18-75.78-53.73-95.86Z"/><path class="cls-6" d="M144.61,129.69a80.31,80.31,0,0,0-10.19,39.22,81.62,81.62,0,0,0,.86,11.84l5.13,35.54-2.77,9.11a236.8,236.8,0,0,0-7,29.83,20.5,20.5,0,0,0-.24,2.26,11.06,11.06,0,0,0,7.22,10.35l.45.17.15.06h.15l.46.13h0a174.11,174.11,0,0,0-2.37,21.14,83.68,83.68,0,0,1-22.6-17.71C101.13,257.52,94.65,241,94.65,222.42c0-16,5.47-34.64,15.42-52.49,9.23-16.58,21.39-30.71,34.55-40.24m3.2-3.41c-30.77,20-54.16,63.09-54.16,96.14,0,44.44,37.44,65.75,43.83,68.49,0-5.44.93-13.61,2.52-23.43l-.87-.24-.57-.16h-.11l-.45-.17a10.06,10.06,0,0,1-6.57-9.41,19.69,19.69,0,0,1,.22-2.08,235.92,235.92,0,0,1,7-29.71l2.83-9.32-5.17-35.76a80.63,80.63,0,0,1-.85-11.7,79.14,79.14,0,0,1,12.38-42.63Z"/><path class="cls-7" d="M169.26,116.5l-18,11,23.68-11.92L148.26,132.5l31-17-33,22,35.48-19.65L144.26,142.5l37.48-20.12L142.26,147.5,164,136.15a.11.11,0,0,1,.11.18L140.26,154.5l21-13-22,18,20.94-13.31L139.26,164.5l20.94-13.78L139.26,167.5l20.94-13.38L139.26,171.5l22.07-14-22.07,17,24.34-13.57L139.26,178.5l26-15L139.8,181.33l27.47-15.83-26.56,19.67a0,0,0,0,0,0,0l29.67-17.49L141.26,188.5l32-19L141.91,192a0,0,0,0,0,0,0l34.32-21.57-34.2,25.57,38.54-24.94-37.42,28.66a.05.05,0,0,0,.06.09l38.49-24.22-38.81,27.72a0,0,0,0,0,0,.07l38.76-23.26-37.48,29.3,37.48-24.77L145.26,215.5l36.48-26.23L145.46,221l36.27-26.07L146.6,226.67l35.14-24.94-34,30.61,34-23.81s-33.48,33.1-33.48,32,33.48-25.16,33.48-25.16l-32.87,29.47,32.87-22.67L150,250.48l31.74-22.67-31.05,27.32a0,0,0,0,0,0,0l31-21.7-30.61,26.07,30.61-19.27L152.26,264.5l29.48-18.55L154.26,268.5l27.48-18-24.48,21,24.48-15.35L161.26,274.5l20.48-12.68L166.26,276.5l15.48-9-10.48,10,10.48-4.35-4.48,5.35"/><polyline class="cls-7" points="162.26 282.5 160.2 284.49 164.26 282.5 161.26 286.5 167.26 283.5 161.26 289.5 171.54 284.49 162.26 292.5 174.26 285.5 163.26 295.5 178.34 285.62 164.26 298.5 181.74 286.75 165.26 301.5 181.74 291.29 166.26 304.5 181.74 295.82 168.14 308.29 181.74 300.36 170.26 311.5 181.74 304.89 172.67 315.09 181.74 309.43 175.26 316.5 181.74 313.96 178.26 318.5"/><path class="cls-7" d="M144.33,131.45l-14.07,10,12-6-20,16,17.53-9.84-22.67,15.87,20.14-9-24.67,15.83,23.67-11.83-26,17,25.15-11.59a0,0,0,0,1,0,.07L107.26,174.5l28-12.44-31.74,19.27,31.05-14.42a.06.06,0,0,1,.06.11L100.12,190.4l35.14-17L97.85,198.33l37.41-20.4-39,26.57L136,182.68a0,0,0,0,1,0,0L95.26,210.5l41.32-23a.06.06,0,0,1,.07.11L94.26,217.5l43.46-24.29a0,0,0,0,1,.05.08L94.26,224.5l43.82-25.83a0,0,0,0,1,0,0L94.45,228.94l44.75-25.73a0,0,0,0,1,0,.07l-44,33.22,44.53-26.83L96.72,242.54l43.74-28a0,0,0,0,1,0,.05L99,248.21l40.81-28.34-38.66,34.24a.07.07,0,0,0,.09.12l36-25.73-33.74,29.91,31.74-22.91-29,27,27-18-23.32,23.36a.08.08,0,0,0,.1.11l21.82-16.37-18.6,19.89,18-12-15,15,17.87-9.28-11.34,15.87,14.74-13.6-10.2,17,10.94-9"/><polyline class="cls-7" points="181.26 95.5 164.26 103.5 181.74 97.44 162.26 106.5 181.74 99.71 160.26 109.5 181.74 101.98 160.26 111.5 181.74 104.25 165.87 111.05 181.74 106.51 174.26 109.5"/><path class="cls-6" d="M160.5,281.63a50.65,50.65,0,0,0,42.25,0,79,79,0,0,1-6.64,23.44c-4.26,9-9.4,13.92-14.49,13.92s-10.23-4.94-14.49-13.92a79,79,0,0,1-6.64-23.44M203.9,280a49.6,49.6,0,0,1-44.57,0c1.13,14.73,9.82,40,22.29,40s21.15-25.31,22.29-40Z"/><path class="cls-6" d="M181.55,96a22.45,22.45,0,0,1,20.8,14.26l0,.09,0,.07a.93.93,0,0,1-.89,1.19h-.15l-.19-.05a75.14,75.14,0,0,0-39.26,0l-.19.05h-.15a.92.92,0,0,1-.92-.92,1,1,0,0,1,.05-.32l0,0,0,0A22.42,22.42,0,0,1,181.55,96m0-1a23.29,23.29,0,0,0-21.75,14.94v0a2,2,0,0,0-.14.74,1.92,1.92,0,0,0,1.92,1.92,1.85,1.85,0,0,0,.39,0h0l.22-.06a74.14,74.14,0,0,1,38.75,0l.22.06h0a1.85,1.85,0,0,0,.39,0,1.93,1.93,0,0,0,1.84-2.5h0l-.09-.23A23.3,23.3,0,0,0,181.55,95Z"/><path class="cls-6" d="M181.56,115.72A73,73,0,0,1,195,117s3.87.81,5.71,1.31a22,22,0,0,1,8.86,6.19c1,1.41,2,2.83,2.88,4.24A75.27,75.27,0,0,1,224,168.92a76.56,76.56,0,0,1-.81,11.11l-11.7,81a18.43,18.43,0,0,1-8.62,12.52c-1.19.61-3.9,1.8-3.9,1.8a46.59,46.59,0,0,1-34.06.33l-.1,0a46.36,46.36,0,0,1-4.38-2,18.53,18.53,0,0,1-8.34-11.54L140.26,180a76.61,76.61,0,0,1-.81-11.12,75.18,75.18,0,0,1,12.91-42.24l.4-.59a21.89,21.89,0,0,1,12-8.43c.69-.16,2.21-.49,2.21-.49h0a73.21,73.21,0,0,1,14.55-1.46h0m0,55.82A22.26,22.26,0,1,0,165.81,165a22.12,22.12,0,0,0,15.74,6.52m0-56.82h0a74.2,74.2,0,0,0-14.75,1.48s-1.54.33-2.24.5a22.91,22.91,0,0,0-12.62,8.82l-.42.61a76.15,76.15,0,0,0-13.08,42.79,77.61,77.61,0,0,0,.82,11.26l11.87,82.19A19.52,19.52,0,0,0,160,274.6a47.36,47.36,0,0,0,4.51,2l.09,0a47.59,47.59,0,0,0,34.81-.34s2.78-1.22,4-1.85h0a19.42,19.42,0,0,0,9.11-13.22l11.71-81.07a77.55,77.55,0,0,0,.82-11.25,76.27,76.27,0,0,0-11.74-40.74h0c-.9-1.43-1.89-2.89-2.94-4.33a23,23,0,0,0-9.34-6.52c-1.87-.51-5.82-1.34-5.82-1.34a74.06,74.06,0,0,0-13.66-1.27Zm0,55.82a21.26,21.26,0,0,1-15-36.3h0a21.26,21.26,0,1,1,15,36.3Z"/><path class="cls-6" d="M222.4,231.54A232.28,232.28,0,0,1,228,256.37c0,.26.16,1.22.16,1.4a6,6,0,0,1-3.92,5.63l-.53.15-.33.09c-1.91.54-3.86,1.07-5.81,1.57l4.86-33.67m-.33-4.69-5.73,39.7q3.66-.92,7.28-1.95l.9-.26,0,0a7,7,0,0,0,4.56-6.56c0-.23-.13-1.28-.18-1.57a232,232,0,0,0-6.87-29.35Z"/><path class="cls-6" d="M141.17,231.27,146,264.95c-1.95-.5-3.9-1-5.8-1.57l-.43-.12-.44-.13a6,6,0,0,1-3.91-5.62c0-.19.12-1.14.16-1.41a232.22,232.22,0,0,1,5.56-24.82m.33-4.69a232,232,0,0,0-6.87,29.35c0,.28-.18,1.33-.18,1.57a7,7,0,0,0,4.59,6.57l.92.26q3.62,1,7.28,1.95l-5.73-39.7Z"/><path class="cls-6" d="M219.05,130c13.06,9.58,25.11,23.68,34.26,40.17,9.85,17.78,15.28,36.34,15.28,52.25,0,18.53-6.48,35.09-19.26,49.21a83.68,83.68,0,0,1-22.6,17.71,172.4,172.4,0,0,0-2.31-20.8l.3-.08.3-.09.66-.19.12,0,.16-.06a10.89,10.89,0,0,0,3.94-2.53,11.13,11.13,0,0,0,3.25-7.81,20.49,20.49,0,0,0-.23-2.22,237.06,237.06,0,0,0-7-29.86l-2.85-9.38,5.07-35.13.06-.41a81.55,81.55,0,0,0,.87-11.84,80.33,80.33,0,0,0-10-38.92m-3.19-3.44h0a79.29,79.29,0,0,1,12.2,42.35,80.54,80.54,0,0,1-.85,11.69l-.06.41L222,216.37,225,226a236.05,236.05,0,0,1,7,29.73,19.91,19.91,0,0,1,.22,2.06,10.06,10.06,0,0,1-3,7.1,10,10,0,0,1-3.58,2.3h0l-.14.05-.09,0-.63.18-.3.09-1.16.32c1.56,9.67,2.46,17.71,2.46,23.09,6.39-2.74,43.83-24,43.83-68.49,0-32.89-23.18-75.78-53.73-95.86Z"/><path class="cls-6" d="M144.61,129.69a80.31,80.31,0,0,0-10.19,39.22,81.62,81.62,0,0,0,.86,11.84l5.13,35.54-2.77,9.11a236.8,236.8,0,0,0-7,29.83,20.5,20.5,0,0,0-.24,2.26,11.06,11.06,0,0,0,7.22,10.35l.45.17.15.06h.15l.46.13h0a174.11,174.11,0,0,0-2.37,21.14,83.68,83.68,0,0,1-22.6-17.71C101.13,257.52,94.65,241,94.65,222.42c0-16,5.47-34.64,15.42-52.49,9.23-16.58,21.39-30.71,34.55-40.24m3.2-3.41c-30.77,20-54.16,63.09-54.16,96.14,0,44.44,37.44,65.75,43.83,68.49,0-5.44.93-13.61,2.52-23.43l-.87-.24-.57-.16h-.11l-.45-.17a10.06,10.06,0,0,1-6.57-9.41,19.69,19.69,0,0,1,.22-2.08,235.92,235.92,0,0,1,7-29.71l2.83-9.32-5.17-35.76a80.63,80.63,0,0,1-.85-11.7,79.14,79.14,0,0,1,12.38-42.63Z"/><path class="cls-6" d="M181.56,133.08a16.19,16.19,0,1,1-11.45,4.74,16.21,16.21,0,0,1,11.45-4.74h0m0-1a17.19,17.19,0,1,0,17.19,17.19,17.07,17.07,0,0,0-17.19-17.19Z"/></g><g id="图层_17" data-name="图层 17"><path class="cls-5" d="M310,272.65l.32.28,1.2.47a1.7,1.7,0,0,1,.82,1.17l.15.42a1.55,1.55,0,0,1-.14.8,2.06,2.06,0,0,1-.64.94.36.36,0,0,1-.29.28l-.08,0a1.41,1.41,0,0,1-.88.68,1.55,1.55,0,0,1-.38.55l-.61.12-.38.61-.28-.08-.32.23q-.6.21-.62.3l-.91.18a2.64,2.64,0,0,1-.77.5l-.79.17-.47.41-.32,0a.25.25,0,0,0-.19,0,.3.3,0,0,0-.2.21l-.9.27-.31-.09-.14.22-1.37.35-.68.08a1.24,1.24,0,0,1-.42.27,1.61,1.61,0,0,1-.91-.12l-.41.33-.2-.12-.3.09a3,3,0,0,1-1,.12,2.63,2.63,0,0,0-.65,0,.43.43,0,0,0-.15.11l-1.21-.41-.67,0a2.5,2.5,0,0,1-1-1.11,4.25,4.25,0,0,1,0-.86l.22,0c.17-.05.25-.2.23-.43l.41-.18-.22,0,.3-.12c.1-.23.19-.36.26-.38s.36.08.46.42a1.28,1.28,0,0,0-.54.58c0,.08,0,.18-.15.31a2.45,2.45,0,0,0-.25.31l.13.14.14.49a3.06,3.06,0,0,1,1.08.49l.36,0a2,2,0,0,1,.64.11l.5-.21-.1-.15.78-.17-.13.16.66-.07.12.11,1.32-.39,0,.1a.62.62,0,0,1,.34-.27.79.79,0,0,1,.29,0,2.47,2.47,0,0,0,.64-.09l.1.15.4-.09.43-.13.32,0-.16-.07a1.79,1.79,0,0,1,.59-.35.41.41,0,0,1,.32.06,1.09,1.09,0,0,1,.55-.34,2.5,2.5,0,0,1,.71-.09.67.67,0,0,1,.36-.26.84.84,0,0,1,.47,0l.93-.59.13-.34.91-.15.66-.37h-.12a4.05,4.05,0,0,1,.94-.37c0-.08.07-.13.11-.14l.2,0,.63-.52h.16l0-.14.48-.14,0-.06c-.05-.17.07-.31.37-.39l.21-.06.08-.14-.12-.09c.1-.2.19-.31.26-.33s.3-.17.25-.32a1.89,1.89,0,0,0,.14-.84q-.2-.67-2.64-.92l-1.4-.14a4.47,4.47,0,0,1-1.47.07,1.52,1.52,0,0,0-1,0,2,2,0,0,0-.52.22l-.23-.17-.35.28-.43-.26-.41.24-.92-.16-.51.15-.41-.15-.46.14-.28-.23v.16l-.32.09-.54-.35a2.49,2.49,0,0,1-1.9,0l-.28.17-.33-.4-.6-.35a5.78,5.78,0,0,0-.9-1l-.14-.88.28-.73a.77.77,0,0,0,.24-.63,1.9,1.9,0,0,1,.58-.5.2.2,0,0,0,.2.06l.16-.48.18.16v-.21l.93-.67-.33,0,.28-.05c.32-.1.49-.26.51-.48a6.45,6.45,0,0,0,1.4-.62l-.18-.08a.43.43,0,0,1,.23-.13.5.5,0,0,1,.29,0l-.11-.06.24,0a.36.36,0,0,0,.29-.36l.15,0,.32-.13q.08,0,.09,0l0,.11a.68.68,0,0,1,.33-.25l.17,0,1.63-.66.13.14-.06-.19.3-.35a.59.59,0,0,0,.65.12l.14,0a2.11,2.11,0,0,1,1-.13l-.2.09a5.77,5.77,0,0,1,1.65-.13q1.11,0,1.33.76.16.54-.53.86l-.18-.22-1,0-.4.12-.43-.29-.57.26-.25-.14-.16.38-.49-.19-.83.37-1,0-.22.23a2.82,2.82,0,0,0-1,.48.55.55,0,0,0-.22,0,.53.53,0,0,0-.32.34l-.65.25-1.57,1.17-.48,0-.5.71L297,270l-.16.48-.57.73c-.06.06-.09.11-.08.14v0a4.27,4.27,0,0,1,.39.71l.33.05.22.25h.46l.38.13a5.12,5.12,0,0,0,.89.11l.1.12.65-.19,1,.32.31-.21a2.72,2.72,0,0,1,.77.13,1.21,1.21,0,0,0,.56.09.63.63,0,0,0,.27-.2l.06.2,1-.21.34.09,0-.1.19-.06.52.16a2.33,2.33,0,0,1,1.09-.14,2.92,2.92,0,0,1,.42-.15.92.92,0,0,1,.71.07.8.8,0,0,0,.47.14l.06,0,.28-.17.23,0,.39-.12.94.34Z"/><path class="cls-5" d="M331.36,270.64l-.06.35a1.68,1.68,0,0,1,.06,1c-.17.26-.24.45-.21.56s0,.34-.1.59l-.19.28a1,1,0,0,0-.12.46l-.78.77a4.82,4.82,0,0,1-.94.48l-.49-.08-.33.1-.36-.14-.31.06-1.19-.24-2.88-1.39-.83-.72-.58-.27a3.24,3.24,0,0,0-.63-.49,3.32,3.32,0,0,1-.73-.47,1.71,1.71,0,0,0-1-.39l-.86-.92c0-.09,0-.41,0-.93l.65.22.4.24a7.52,7.52,0,0,0,1,.34l.36-.11.19.09a1.08,1.08,0,0,1,.27-.11.75.75,0,0,1,.34,0,2.3,2.3,0,0,1,.7-.58,6.81,6.81,0,0,0,.71-.46l.06-.32.64-.19a.27.27,0,0,1,.11-.25l.14-.13.08,0c.29-.08.42-.37.39-.87a4.12,4.12,0,0,0,.43-.44l.13-.23a3,3,0,0,0,.2-.74l.06,0q.28-.08.26-1.22l.14,0v-.22l-.2-.45-.09-.5q-.09-.32-1-.46a.41.41,0,0,0-.45-.15l-.08,0-.21-.09q-.61.14-1.26.23c-.44.06-.7.11-.78.13a2.29,2.29,0,0,0-1,.75,3.71,3.71,0,0,0-.72.3l.06,0a2,2,0,0,0-.29.18l-.26.22-.28.29a1.92,1.92,0,0,1-.29.27l-.32.25-.76,1.11-.68,1.38.06.19-.19,1.08-.05.69a2.62,2.62,0,0,0-.11,1.3.66.66,0,0,0,.23.32.32.32,0,0,1-.06.36,1.06,1.06,0,0,0,0,.65l.1.24a1.19,1.19,0,0,1,0,.45,1.87,1.87,0,0,0-.17.58l.28.48.05.63.2.41a1.89,1.89,0,0,0,.05.93l0,.17a1,1,0,0,1,.12.19c.07.22-.06.43-.37.62-.18,0-.35-.14-.52-.43l-.22-.33-.06-.51-.41-1.08v-.27l-.32-1.08-.08-.38-.1-.33q-.22-.75-.33-1.33l-.12-.6-.14-.46,0-.28-.23-.79v-.33l-.2-.38-.2-1-.34-1.16-.2-.36.06-.3-.15-.29-.56-1.6-.47-.88-.07-.22-.17-1.09-.25-.43-.24-.7a4.51,4.51,0,0,1-.22-.52q-.17-.57.48-.76l.14.18.14-.15.08.47.38.76.06.9.38,1.09.27.42,0,.47.28.76.07.63.31.53,0,.22.26.36.13.73.48,2a3.76,3.76,0,0,1,.18.41l.06.42.21.52a1.3,1.3,0,0,1,0,.57,1.17,1.17,0,0,0,.48.16l.12-.8-.07-.13a8,8,0,0,1,.13-1.55,8.24,8.24,0,0,1,.6-2.31q.18-.1.15-.2a.21.21,0,0,0-.09-.11,5.57,5.57,0,0,0,.64-.75,1.93,1.93,0,0,1,.15-.25,1.75,1.75,0,0,1,.19-.22,1,1,0,0,1,.21-.17.46.46,0,0,0,.16-.16,1.73,1.73,0,0,1,.23-.27,4.09,4.09,0,0,1,.52-.42c.09-.27.43-.53,1-.8l1.05-.46,2-.45.36.09a1.66,1.66,0,0,0,.53,0,12.15,12.15,0,0,0,1.41.68.44.44,0,0,0-.13-.14l.67.8v.24a.74.74,0,0,1,.34.4,1.25,1.25,0,0,1-.13.72l.07.25,0,1.06-.25.75-.19.09a.9.9,0,0,1-.12.43,1,1,0,0,0-.13.41.78.78,0,0,0-.47.49.45.45,0,0,0-.23.4,1.14,1.14,0,0,0-.52.62.12.12,0,0,0,.07-.05h0a15.3,15.3,0,0,1-2.36,1.75,1,1,0,0,0-.47,0c-.15,0-.19.17-.13.38l0,.06v.15l.3.2.22.39a.76.76,0,0,0,.61.34l.77.83.87.24.07.13.37.07.2.26.16-.08,1.11.59,1.18.12h.71l.52-.22.22-.18a2.57,2.57,0,0,0,.76-.6,3.49,3.49,0,0,0,.35-.44l.23-1.12.13-.32a2.09,2.09,0,0,0,.08-.63.87.87,0,0,1,.21-.12A.29.29,0,0,1,331.36,270.64Z"/><path class="cls-5" d="M349.17,256.07,332.57,261l-.32-1.09L348.84,255Zm1.49,5L334.06,266l-.33-1.11L350.33,260Z"/><path class="cls-5" d="M364.09,260.21a1.09,1.09,0,0,1,.35.41,1.3,1.3,0,0,1-.12.55,3.12,3.12,0,0,0-.17.88l-.2.09-.13.68-.33.16-.61.74,0,.35-.24,0-.16.36-.4.12,0,.16-.2,0a.72.72,0,0,0-.46.43l-.22-.08a1.24,1.24,0,0,1-.43.28.91.91,0,0,1-.55,0,2,2,0,0,1-.37.14l-.21-.09a1.29,1.29,0,0,1-1.15-.13l-.1-.35-.53-.11-.2-.26a1.19,1.19,0,0,0-.41-.27l-.07-.22-.72-1.25-.23-1,0-.57-.18-.59v-.56l-.17-.36a.57.57,0,0,0,.1-.37,1.79,1.79,0,0,1,0-.47q-.13-.23-.32-.67l.19-.28-.33-.2a1.31,1.31,0,0,0,.08-.46l-.39-.81A2.23,2.23,0,0,1,355,256a.48.48,0,0,0,.45.14,3.19,3.19,0,0,0,.51-.27.62.62,0,0,1-.08-.19.44.44,0,0,1,.12-.41,5.54,5.54,0,0,1,.24-1.49.71.71,0,0,0,.1-.65l.14,0,.06-.32.14-.12a1.15,1.15,0,0,1,.17-.5,1.91,1.91,0,0,0,.57-.88.66.66,0,0,0,.24,0s.07-.14.13-.38l.46-.32a.35.35,0,0,1,.3.09l.25-.13.17.07.17,0a.6.6,0,0,0,.7.29l.08,0a.47.47,0,0,0,.27.24l-.11.09q.56.09.81,1v.34l.32.76-.1.17-.07.94-.36.88.09.41a9,9,0,0,1-1.33,1.63c0,.12,0,.2-.13.22h-.24l-.5.61-.37.11-.47.41-.28-.07a2.32,2.32,0,0,0-.62.06,1.42,1.42,0,0,0-.12,1.17l-.12.29a3.25,3.25,0,0,1,.08.78l-.13.13.46,1-.11.18.12.31.09.4a4.93,4.93,0,0,0,.22.51c.13.27.25.42.37.43s.13.27.41.39a2.14,2.14,0,0,0,.84.17l0,.17.77-.11,1.07-.26.68-.29a3.26,3.26,0,0,1,.51-.56l.12-.4.26-.08v-.15a2.57,2.57,0,0,0,.59-.48.24.24,0,0,0,0-.16.27.27,0,0,1,.2-.24l0-.21a1,1,0,0,0,.53-1A.54.54,0,0,1,364.09,260.21Zm-4.24-5.78c.07,0,.16-.18.27-.46v-.36a6.3,6.3,0,0,0,.18-.86,1.27,1.27,0,0,0-.06-.41,3.28,3.28,0,0,0-.44-.77l-.62,0a1.66,1.66,0,0,1-.27.14h-.18a.32.32,0,0,0-.22.33,2.42,2.42,0,0,0-.7.43l0,.22h-.12l-.07,0,0,.06,0,.08a.34.34,0,0,0,0,.11s0,.08,0,.13,0,.09,0,.14a1.11,1.11,0,0,1-.1.29l-.13.31-.18.88-.15.24a.7.7,0,0,0,0,.41,6.27,6.27,0,0,1-.36,1.55l.23.05.17.21h.51a2.46,2.46,0,0,1,.75-.63l0-.19a.78.78,0,0,0,.24,0,.36.36,0,0,0,.21-.25l.32-.15.11-.41.19-.06,0-.35a1,1,0,0,0,.6-.55Z"/><path class="cls-5" d="M383.41,251.4l-.51,1.88a.39.39,0,0,0,0,.25,3.22,3.22,0,0,0,.54.46l-.16.17.21,1-.07.82.47.21-.36.35.1.35.31.15,0,.57.3.59v.43l.27.16-.14.28.31.64,0,.77.44.2.12.76.57.54q.07.39-.17.46a.45.45,0,0,1-.32-.09c-.14-.08-.21-.13-.22-.16l-.41-.86h-.38l-.11-.37-.53-.67-.13-.46-.21-.15-.07-.33-.22,0,0-.28-.22.07c0-.11,0-.17.07-.18a.24.24,0,0,1,.19,0l-.33-.4,0-.44-.22-.34.12-.31-.22,0a.83.83,0,0,0,0-.54l-.53-1.17,0-.62-.12-.11c-.08,0-.15-.09-.21-.29a1,1,0,0,0-.34-.35l-.21.27a1.33,1.33,0,0,1-.4.57,2.92,2.92,0,0,1-.94.42,1.51,1.51,0,0,0-.87.52l-.18.31-1,.52-.38.38-.65.19-.39.37-.61.12-.31.39H375l-.18.32a1.78,1.78,0,0,1-.42.07,1.78,1.78,0,0,0-.33,0,.79.79,0,0,0-.43.32.37.37,0,0,0-.31,0,.24.24,0,0,0-.15.11l-.1.07h-.16l-.37.39-.53-.22-.29.28-1,0-.15.16-.38-.07-.71.21-.43-.17-.68-.11L367,259l-.39-.8-.44-.31.07-.52-.32-.21.1-.21-.3-.26,0-.16.36-.17-.1-.35.13-.54.09.11a1.14,1.14,0,0,0,.14-.85l-.07-.13q.57-.26.43-1.24l-.11.44q.07-.85.37-.94l.05,0-.05.23a.42.42,0,0,0,.14-.45l0-.08.3-.15,0,.13.18-.11-.06-.4.17.07-.06-.21.32-.09.17-.23a1.94,1.94,0,0,0,.14-.6l.56-.29a2.63,2.63,0,0,0,.38-.91l.39-.27.06-.3.52-.21.32-.59a2.29,2.29,0,0,0,.78-.56l0-.16.07,0,.2-.29-.07,0a.9.9,0,0,1,.28-.26.82.82,0,0,1,.26,0c.06-.39.21-.62.44-.69l.6-.18c.16,0,.33-.26.52-.65l.26,0,.38-.41h.21a1.44,1.44,0,0,1,.46-.36c.21-.11.31-.2.31-.27l.11-.12h.15l.62-.21,0-.25.36,0,.57-.26,0-.13.51.06.43-.13.63.28a2.21,2.21,0,0,1,.82.12c0,.45-.22.82-.79,1.11l-1-.19-.22.18-.54,0-.28.29h-.53l-.7.67-.39-.08a6.12,6.12,0,0,0-.94.62.79.79,0,0,0-.18.29,1.24,1.24,0,0,1-.56.51,1,1,0,0,1-.28,0q-1.61,1.68-2,1.71v.29l-.22.07-.17.47-.37.18a2.54,2.54,0,0,1-.71,1,4.41,4.41,0,0,0-.59.57l-.5.9-.35.5-.27.76-.68,1,.19.64-.11.18-.11,1.45.14.48a.76.76,0,0,0,.43.5.69.69,0,0,1,.41.43.42.42,0,0,1,0,.17l.46.27.88.19h.87l.95-.31,1.2-.11.16-.08H373l1.61-.63a6.7,6.7,0,0,1,1.92-.91l-.09-.09,1.32-.54,0-.08,1.43-.83a2,2,0,0,1,1-.69,11,11,0,0,0,1.1-.51l-.12-.21.17,0,0-.11.39-.25-.21-.24.21-.44-.15-.51c-.14,0-.21,0-.23-.08a1.27,1.27,0,0,0-.05-.48,1.62,1.62,0,0,0-.23-.47l.86-.29.31.15.26-.08.58.39Z"/><path class="cls-5" d="M404.29,242.48l-7.74,2.29,2.34,7.91-1.11.33-2.34-7.91-7.74,2.29-.33-1.11,7.74-2.29-2.34-7.9,1.11-.33,2.34,7.9,7.74-2.29Z"/><path class="cls-5" d="M418,235l0,.37-.8.36-.42.56-.34.16-.38.41-.39.34a1.87,1.87,0,0,1-.43.52l0,.14-.35.33-.16.54-.3.09,0,.49-.26.3a.85.85,0,0,0-.21.39l-.13.59a.92.92,0,0,0-.15.87h-.15v.2l-.17.2,0,.54a1.4,1.4,0,0,0-.11.74l-.23.19.18.6a.83.83,0,0,0,0,.35l.08.08-.24.19.15.2a4.46,4.46,0,0,1-.13,1.15l.24.32-.14.54a2.56,2.56,0,0,1,.18.41l.08.47.27.46a.74.74,0,0,0,.17.13l.27.15a1.7,1.7,0,0,1-.2.59l-.42,0,.13.23-.66.07-.11-.37-.16-.22-.05-.48-.14-.17-.23-1-.25-.64c-.14,0-.22,0-.24-.11a.73.73,0,0,1,.09-.4l-.12-.42a3.11,3.11,0,0,0-.17-.48l.07-.17-.27-.51,0-.45-.16-.24-.14-.79-.2-.18v-.29l-.33-.52-.08-.46a3.46,3.46,0,0,0-.21-.5l0-.16-.45-.92-.25-.08.06-.55a1.63,1.63,0,0,1-.57-.85l-.12-.39a.81.81,0,0,1-.24-.21,1.6,1.6,0,0,1,.57-.67h.22a1.5,1.5,0,0,0,.5.58l.15.72.91,2.06a.54.54,0,0,1-.06.42l.31.55,0,.46.22.43.05.38.33.37-.1.12.29.62h.24l-.07-.58a1.9,1.9,0,0,1,.18-.6,1,1,0,0,0,.15-.81l0-.17.16-.14s0,0,0-.12,0-.12.07-.13l.08,0v-.6l.34-.42,0-.17.19-.06-.18-.29.37-.32-.07-.35.38-.17a1.37,1.37,0,0,0,.26-.66l.25-.13a3.05,3.05,0,0,1,.36-.66.15.15,0,0,0,.11-.12l.38-.38,0-.24.21-.21q.57-.76.84-.83l.11,0a.6.6,0,0,0,.36-.26h.27a.64.64,0,0,1,.28-.23A1.53,1.53,0,0,1,418,235Z"/><path class="cls-5" d="M433.19,231.64l-.06.4a1.2,1.2,0,0,1-.14.43l-.3.56.06.19a.84.84,0,0,0-.4.45c-.07.19-.15.3-.24.33q-.11.53-1,1a1.22,1.22,0,0,1-.87.78l-.15,0,0,.17-.57.17-.25.36-.31.12c0,.15,0,.24-.13.28l-.2.29-.65.19-.28.48-1.09.58-.12.16-.67.14a3.34,3.34,0,0,1-.11.56,2.24,2.24,0,0,0-.86.09l-.22.23-.36.26a2,2,0,0,1-.54.46V241l.45.46,0,.72.44.71-.15.16.33.26.17.57.2.26.15.51.63-.25a.41.41,0,0,1,.23.26q.13.43-.47.61l-.17,0-.41.3-.6-.59-.84-1-.34-1.16-.46-.48.14-.28-.29-.53-.06-.42-.27-.19-1.23.14-.44-.35,1.38-.54-.16,0a.23.23,0,0,1,.15-.11c.1,0,.17,0,.21,0l-.19-.65.08-.38-.42-1.73.11-.26-.44-1.29-.1-.74-.41-1.58,0-.5.18-.22-.18-.4c-.06-.19,0-.32.25-.39q1-.29,1.16.36a1.78,1.78,0,0,1,0,.7,1.78,1.78,0,0,0,0,.74,1.84,1.84,0,0,0,.55.68l-.19.33.2.77-.26.45.29.56,0,.72.29.59,0,.52.17.36-.12.37c.12.31.31.45.56.42l.58-.64.6-.18a1.4,1.4,0,0,1,.85-.67l.14-.24a1.16,1.16,0,0,0,.42-.06,1.87,1.87,0,0,0,1-.81l.45-.16.27-.42.37-.11,0-.16,1.37-.87c.26-.11.38-.21.34-.31a.51.51,0,0,0,.06-.3,1.72,1.72,0,0,0,.33-.07q.39-.11.34-.64c.28-.12.43-.23.43-.32a.35.35,0,0,1,.16-.26l.21.09v-.47l.16-.23-.07-.66a4.47,4.47,0,0,0-1-1l-.31,0-.63-.31-1.18-.13a4.31,4.31,0,0,0-2.42-.22l.06.19-.58-.19-.64.22-.47-.15-.46.14-.47-.1-.4.12a.6.6,0,0,1-.54-.08l-1.15.18q-.28.19-.76.57l-.77-.21-.32.35-.38-.11-.54.36,0,.08-.25.07-.48.47-.37.17a1.8,1.8,0,0,0-.48.43,2.24,2.24,0,0,1-.76-.89l.17-.49-.06-.19q0-.15.46-.31a2,2,0,0,0,.71-.44,2.88,2.88,0,0,0,.42,0,.34.34,0,0,0,.21-.2l.29.05a1.6,1.6,0,0,1,.27-.16.28.28,0,0,1,.3.11l1.37-.41.83-.21,1-.11a.52.52,0,0,0,.29.09c.13,0,.2,0,.21.08l.15-.27.11,0c.2-.06.32-.05.34,0a.14.14,0,0,1,0,.11l.4-.12a6.25,6.25,0,0,0,1.35-.13l.13.14.78-.23.62.2a2.14,2.14,0,0,0,.63-.07l.21.18.14,0a1.09,1.09,0,0,1,1.19.27l.3-.3.1.35a2.47,2.47,0,0,1,.84.2l.33-.1.38.32,1.08.33.09.32Z"/><path class="cls-5" d="M320.93,299.33l0,.37-.8.36-.42.56-.34.16-.38.41-.4.34a1.86,1.86,0,0,1-.43.52l0,.14-.35.33-.16.54-.3.09,0,.49-.26.3a.83.83,0,0,0-.21.4l-.12.59a.92.92,0,0,0-.15.87h-.16v.2l-.17.2-.05.54a1.39,1.39,0,0,0-.11.74l-.23.19.18.6a.82.82,0,0,0,0,.35l.08.08-.24.19.15.2a4.48,4.48,0,0,1-.13,1.15l.25.32-.14.54a2.46,2.46,0,0,1,.18.41l.08.47.27.46a.72.72,0,0,0,.17.13l.27.15a1.69,1.69,0,0,1-.2.59l-.42,0,.13.23-.66.07-.11-.37-.16-.22-.05-.48-.14-.17-.23-1-.25-.63c-.14,0-.22,0-.24-.11a.73.73,0,0,1,.09-.4l-.12-.42a3.18,3.18,0,0,0-.17-.48l.07-.17-.27-.51,0-.45-.16-.24-.14-.79-.2-.18v-.29l-.33-.52-.08-.46a3.59,3.59,0,0,0-.21-.5l0-.16-.45-.92-.25-.08.06-.55a1.62,1.62,0,0,1-.57-.85l-.11-.39a.8.8,0,0,1-.24-.21,1.6,1.6,0,0,1,.57-.67h.22a1.49,1.49,0,0,0,.5.57l.15.72.91,2.06a.54.54,0,0,1-.06.42l.32.55,0,.45.22.43.05.38.33.37-.1.12.29.62h.24l-.07-.58a1.93,1.93,0,0,1,.18-.6,1,1,0,0,0,.15-.81l0-.17.16-.14s0-.05,0-.12,0-.12.07-.13l.08,0v-.6l.34-.42,0-.18.19-.06-.18-.29.37-.32-.08-.36.39-.17a1.38,1.38,0,0,0,.26-.66l.25-.13a3,3,0,0,1,.36-.67.15.15,0,0,0,.11-.12l.38-.38,0-.24.21-.21c.38-.51.66-.78.84-.84l.11,0a.6.6,0,0,0,.36-.26h.27a.63.63,0,0,1,.28-.23A1.54,1.54,0,0,1,320.93,299.33Z"/><path class="cls-5" d="M340.7,294.21l-16.59,4.91-.32-1.09,16.59-4.91Zm1.49,5-16.59,4.91-.33-1.11,16.59-4.91Z"/><path class="cls-5" d="M363.21,297q1.12.27,1.22.6a.7.7,0,0,1-.26.72,1.75,1.75,0,0,1-.66.44l-.63,0-.42.21h0a.71.71,0,0,1-.28,0,.93.93,0,0,0-.51,0l-.06,0a1.11,1.11,0,0,1-1.23-.34.15.15,0,0,1-.09.06,2.27,2.27,0,0,1-.6,0l-.45-.34a3.91,3.91,0,0,1-1.1-.44l-2.38-1.62-.87-.75-.28-.47-.39-.19-.24.07a4.29,4.29,0,0,0-.38,1.12l-.23.13-.8,1.26-.46.63-.15.78-1.5,2.19-.2.71-.55.43a1.45,1.45,0,0,0-.27.5l-.34.13-.43.93-.3.24a2.31,2.31,0,0,1-.54.57q-.21.68-.37.73c-.11,0-.19,0-.23-.16l.32-.49a2.76,2.76,0,0,0,.21-.65c.21-.09.28-.28.23-.56a1.65,1.65,0,0,0,.78-1.32l.19-.18h.2l.29-.64.11-.18a3.3,3.3,0,0,0,.17-.31,2.58,2.58,0,0,0,.12-.3,2.53,2.53,0,0,1,.48-.59l.26-.51a1,1,0,0,0,.27-.67l.31-.18.53-1.15-.06-.19.27-.32.09-.55.26-.14.21-.65.42-.27-.08-.38.32-.44,0-.14a2.85,2.85,0,0,0-1.43-1.52,1.77,1.77,0,0,1-.59-.41l-.36-.39-.57-.25-1.35-.81a6.16,6.16,0,0,0-.91-.67,5.26,5.26,0,0,1-1.67-.48,1.37,1.37,0,0,1-.72-.82l-.08-.28.5-.4.59-.1.53.32.47-.14.06.21.49.09.31.43.51,0,.37.39.5.06.15.51,1.26.71.36.51.21-.06.48.39.59.71.33.13a2.61,2.61,0,0,1,.51.39,4.14,4.14,0,0,1,.55-1c.21-.27.31-.43.3-.47a.08.08,0,0,0,0,0l.2-.24-.08-.26.57-.95a.33.33,0,0,0,.07-.25l.18-.52a4.22,4.22,0,0,1,.25-.84l.39-.86.06-.42a1.15,1.15,0,0,0,.19-.67l-.05-.31a2.1,2.1,0,0,1,.18-.57,6.74,6.74,0,0,1,.31-.71l.4-.21c.09,0,.22,0,.37.17a1.21,1.21,0,0,1,.34.57,2.26,2.26,0,0,1-.12.63,5.54,5.54,0,0,0-.16.8,3.32,3.32,0,0,1-.24.8,1.73,1.73,0,0,0-.35.59.35.35,0,0,0-.18.4,1.53,1.53,0,0,0-.08.79.57.57,0,0,0-.2.44,1.28,1.28,0,0,0-.43.75,5,5,0,0,1-.12.55.71.71,0,0,0-.28.49l-.14.48-.33.58-.13.48a2.21,2.21,0,0,0-.34.46.35.35,0,0,0,0,.19.45.45,0,0,0,.16.22l.34.29a4.65,4.65,0,0,1,.6.7l.15.06a.92.92,0,0,1,.26.15l.44.35.89.63.23.43,1,.44.79.47.63.05.78.45.25-.07,1,.09a1.94,1.94,0,0,0,.37-.08.69.69,0,0,0,.49-.35c.06-.15.12-.24.17-.25h0Z"/><path class="cls-5" d="M377.55,303.72l0,.2a1,1,0,0,1,0,.59c-.1.15-.14.26-.12.33s0,.2-.06.34l-.11.16a.53.53,0,0,0-.07.27l-.46.45a2.9,2.9,0,0,1-.55.28l-.29,0-.19.06-.21-.08-.18,0-.69-.14-1.68-.81-.48-.42-.34-.15a1.85,1.85,0,0,0-.37-.29,2,2,0,0,1-.42-.27,1,1,0,0,0-.56-.23l-.5-.54q0-.08,0-.54l.38.13.23.14a4.3,4.3,0,0,0,.6.2l.21-.06.11.05.16-.06a.45.45,0,0,1,.2,0,1.36,1.36,0,0,1,.41-.33,4,4,0,0,0,.42-.27l0-.19.37-.11a.16.16,0,0,1,.06-.15l.08-.07h0c.17,0,.24-.22.23-.51a2.5,2.5,0,0,0,.25-.26l.07-.14a1.76,1.76,0,0,0,.12-.43h0c.11,0,.16-.27.15-.71l.08,0V300l-.11-.27-.05-.29c0-.12-.24-.21-.6-.27a.24.24,0,0,0-.26-.09h0l-.12-.05-.74.13-.46.08a1.34,1.34,0,0,0-.59.44,2.18,2.18,0,0,0-.42.18l0,0-.17.1-.15.13-.16.17a1.07,1.07,0,0,1-.17.16l-.19.14-.44.65-.39.8,0,.11-.11.63,0,.4a1.53,1.53,0,0,0-.07.76.37.37,0,0,0,.13.19.19.19,0,0,1,0,.21.62.62,0,0,0,0,.38l.06.14a.71.71,0,0,1,0,.26,1.1,1.1,0,0,0-.1.34l.16.28,0,.37.11.24a1.1,1.1,0,0,0,0,.54l0,.1.07.11c0,.13,0,.25-.22.36s-.21-.08-.3-.25l-.13-.19,0-.3-.24-.63v-.16l-.19-.63,0-.22-.06-.19c-.09-.29-.15-.55-.19-.78l-.07-.35-.08-.27v-.16l-.14-.46v-.19l-.12-.22-.12-.58-.2-.68-.12-.21,0-.18-.08-.17-.33-.93-.28-.52,0-.13-.1-.64-.14-.25-.14-.41a2.8,2.8,0,0,1-.13-.3c-.07-.22,0-.37.28-.44l.08.11.08-.08,0,.28.22.44,0,.53.22.64.16.24,0,.27.17.44,0,.37.18.31,0,.13.15.21.07.43.28,1.19a2.26,2.26,0,0,1,.11.24l0,.24.13.31a.77.77,0,0,1,0,.33.67.67,0,0,0,.28.09l.07-.47,0-.08a4.72,4.72,0,0,1,.08-.9,4.81,4.81,0,0,1,.35-1.35c.07,0,.1-.08.09-.11a.13.13,0,0,0-.05-.06,3.07,3.07,0,0,0,.37-.44l.09-.15L370,300a.52.52,0,0,1,.12-.1.27.27,0,0,0,.09-.1l.13-.16a2.51,2.51,0,0,1,.3-.24c.05-.16.25-.31.6-.47l.61-.27,1.19-.26.21.05a1,1,0,0,0,.31,0,6.8,6.8,0,0,0,.82.4.27.27,0,0,0-.08-.08l.39.46v.14a.43.43,0,0,1,.2.23.72.72,0,0,1-.08.42l0,.15v.62l-.14.44-.11,0a.53.53,0,0,1-.07.25.55.55,0,0,0-.07.24.46.46,0,0,0-.28.28.26.26,0,0,0-.13.23.66.66,0,0,0-.31.36l0,0h0a8.89,8.89,0,0,1-1.37,1,.59.59,0,0,0-.28,0c-.09,0-.11.1-.07.22V304l.17.11.13.23a.44.44,0,0,0,.36.2l.45.48.51.14,0,.08.21,0,.12.15.09,0,.65.34.69.07h.41l.31-.13.13-.11a1.5,1.5,0,0,0,.44-.35,1.92,1.92,0,0,0,.21-.25l.13-.65.08-.19a1.28,1.28,0,0,0,0-.37l.12-.07A.17.17,0,0,1,377.55,303.72Z"/></g><g id="图层_11" data-name="图层 11"><line class="cls-2" x1="94.46" y1="31.95" x2="267.35" y2="31.61"/><polygon class="cls-5" points="96 31.78 97.62 34.62 91.94 31.78 97.62 28.94 96 31.78"/><polygon class="cls-5" points="266.91 31.78 265.29 28.94 270.97 31.78 265.29 34.62 266.91 31.78"/><line class="cls-2" x1="38.48" y1="273" x2="38.48" y2="99.5"/><polygon class="cls-5" points="38.48 271.46 41.32 269.84 38.48 275.51 35.65 269.84 38.48 271.46"/><polygon class="cls-5" points="38.48 100.54 35.65 102.16 38.48 96.49 41.32 102.16 38.48 100.54"/><line class="cls-2" x1="142.35" y1="61.27" x2="219.24" y2="61.27"/><polygon class="cls-5" points="143.89 61.27 145.51 64.11 139.83 61.27 145.51 58.44 143.89 61.27"/><polygon class="cls-5" points="219.02 61.27 217.4 58.44 223.08 61.27 217.4 64.11 219.02 61.27"/><line class="cls-2" x1="38.48" y1="315.5" x2="38.48" y2="279"/><polygon class="cls-5" points="38.48 314.35 41.32 312.73 38.48 318.4 35.65 312.73 38.48 314.35"/><polygon class="cls-5" points="38.48 280.22 35.65 281.84 38.48 276.16 41.32 281.84 38.48 280.22"/></g></g></svg>