<?xml version="1.0" standalone="no"?>
<!DOCTYPE svg PUBLIC "-//W3C//DTD SVG 1.1//EN" "http://www.w3.org/Graphics/SVG/1.1/DTD/svg11.dtd" >
<!--
2013-9-30: Created.
-->
<svg>
<metadata>
Created by iconfont
</metadata>
<defs>

<font id="iconfont" horiz-adv-x="1024" >
  <font-face
    font-family="iconfont"
    font-weight="500"
    font-stretch="normal"
    units-per-em="1024"
    ascent="896"
    descent="-128"
  />
    <missing-glyph />
    
    <glyph glyph-name="x" unicode="x" horiz-adv-x="1001"
d="M281 543q-27 -1 -53 -1h-83q-18 0 -36.5 -6t-32.5 -18.5t-23 -32t-9 -45.5v-76h912v41q0 16 -0.5 30t-0.5 18q0 13 -5 29t-17 29.5t-31.5 22.5t-49.5 9h-133v-97h-438v97zM955 310v-52q0 -23 0.5 -52t0.5 -58t-10.5 -47.5t-26 -30t-33 -16t-31.5 -4.5q-14 -1 -29.5 -0.5
t-29.5 0.5h-32l-45 128h-439l-44 -128h-29h-34q-20 0 -45 1q-25 0 -41 9.5t-25.5 23t-13.5 29.5t-4 30v167h911zM163 247q-12 0 -21 -8.5t-9 -21.5t9 -21.5t21 -8.5q13 0 22 8.5t9 21.5t-9 21.5t-22 8.5zM316 123q-8 -26 -14 -48q-5 -19 -10.5 -37t-7.5 -25t-3 -15t1 -14.5
t9.5 -10.5t21.5 -4h37h67h81h80h64h36q23 0 34 12t2 38q-5 13 -9.5 30.5t-9.5 34.5q-5 19 -11 39h-368zM336 498v228q0 11 2.5 23t10 21.5t20.5 15.5t34 6h188q31 0 51.5 -14.5t20.5 -52.5v-227h-327z" />
    

    
    <glyph glyph-name="dot1" unicode="&#59071;" d="M692.071703 566.1382699999999c-48.372707 48.387034-112.705921 75.023694-181.146687 75.023694-68.440765 0-132.747373-26.63666-181.148733-75.023694-48.400337-48.374754-75.022671-112.707968-75.022671-181.123151s26.623357-132.74635 75.022671-181.146687c48.374754-48.402383 112.707968-75.023694 181.148733-75.023694 68.441788 0 132.745327 26.647917 181.146687 75.023694 48.427966 48.373731 75.024717 112.706945 75.024717 181.146687C767.096421 453.455885 740.447481 517.762493 692.071703 566.1382699999999z"  horiz-adv-x="1024" />

    
    <glyph glyph-name="dot" unicode="&#59072;" d="M692.071703 566.1382699999999c-48.372707 48.387034-112.705921 75.023694-181.146687 75.023694-68.440765 0-132.747373-26.63666-181.148733-75.023694-48.400337-48.374754-75.022671-112.707968-75.022671-181.123151s26.623357-132.74635 75.022671-181.146687c48.374754-48.402383 112.707968-75.023694 181.148733-75.023694 68.441788 0 132.745327 26.647917 181.146687 75.023694 48.427966 48.373731 75.024717 112.706945 75.024717 181.146687C767.096421 453.455885 740.447481 517.762493 692.071703 566.1382699999999zM510.923994 199.33211700000004c-102.363366 0-185.65742 83.273589-185.65742 185.658444 0 102.373599 83.293031 185.656397 185.65742 185.656397 102.384855 0 185.658444-83.283822 185.658444-185.656397C696.582437 282.60570499999994 613.308849 199.33211700000004 510.923994 199.33211700000004z"  horiz-adv-x="1024" />

    
    <glyph glyph-name="erweima" unicode="&#59073;" d="M167.499571 789.285581c101.652275 0 203.305472 0 304.957747 0 31.011533-3.070976 23.53705-57.657139 23.53705-93.120819 0-63.699763 0-105.683968 0-168.845517 0-36.696781 6.910669-81.674138-17.396941-92.097536-15.830221-6.788608-58.314445-2.046566-78.797824-2.046566-56.236032 0-101.948006 0-161.688986 0-37.376717 0-88.413184-8.92119-94.147994 23.536026 0 103.013171 0 206.025318 0 309.03849C148.141875 777.260646 155.493683 785.59959 167.499571 789.285581zM209.456845 719.700685c0-73.337242 0-146.673562 0-220.010803 73.340314 0 146.679603 0 220.019814 0 0 74.360627 0 148.720128 0 223.080755-72.998502 0-145.998029 0-218.996531 0C209.287987 722.598707 209.368883 721.152819 209.456845 719.700685zM576.838861 789.285581c101.652275 0 203.305472 0 304.957747 0 12.439859-4.615066 20.987802-13.123891 23.53705-27.629261 0-100.284006 0-200.569037 0-300.852019-2.790707-12.501709-9.318605-23.181005-21.490278-26.605978-19.891814-5.596467-52.943974-1.023283-76.751155-1.023283-56.09175 0-102.084096 0-156.572262 0-23.611699 0-58.605056-4.973261-77.774438 1.023283-27.060429 8.465818-19.44361 61.287834-19.44361 98.23744 0 49.081856 0 106.373734 0 157.589197C553.301811 732.687462 543.937126 783.324774 576.838861 789.285581zM618.796134 719.700685c0-73.337242 0-146.673562 0-220.010803 73.340314 0 146.679603 0 220.019814 0 0 74.360627 0 148.720128 0 223.080755-72.998502 0-145.998029 0-218.996531 0C618.627277 722.598707 618.70807 721.152819 618.796134 719.700685zM309.744947 655.23241c30.642074 5.782733 54.739866-14.920806 55.260774-42.978816 0.686694-37.000704-37.105562-57.326592-66.517606-41.955533C264.839475 587.88352 267.053978 647.175885 309.744947 655.23241zM719.084237 655.23241c72.177766 13.484134 70.79424-100.818125 0-89.027686C674.031309 573.707674 672.577126 646.543565 719.084237 655.23241zM470.41065 17.71264c-100.62889 0-201.257779 0-301.887693 0-12.532941 3.840512-20.999066 11.747533-24.560333 24.559309 0 102.67136 0 205.343744 0 308.015206 2.980966 9.013248 9.862042 19.528806 20.466995 22.512742 20.032 5.636403 52.753613 1.023283 76.751155 1.023283 55.154381 0 105.117286 0 156.572262 0 23.139942 0 56.816333 5.164646 77.774438-1.023283 28.353946-8.370688 20.466995-60.335206 20.466995-97.214054 0-56.6912 0-105.050522 0-162.705715C495.994368 73.076634 504.565862 21.266637 470.41065 17.71264zM209.456845 304.238387c0-73.338266 0-146.673562 0-220.010803 73.340314 0 146.679603 0 220.019814 0 0 74.360627 0 148.720128 0 223.080755-72.998502 0-145.998029 0-218.996531 0C209.287987 307.13641 209.368883 305.690419 209.456845 304.238387zM905.333555 346.19392c0-28.652544 0-57.30519 0-85.957734-2.387456-28.994355-0.341811-62.420685-1.023386-93.120819-72.657715 0-145.31543 0-217.973146 0 0 16.713626 0 33.428378 0 50.142003-20.468019 2.38633-45.367091 0.341811-67.540992 1.023283-2.387456-64.810086-0.340787-134.052045-1.023386-200.568013-13.303501 0-26.607002 0-39.910605 0-34.315981 6.877594-24.560333 58.36841-24.560333 99.260723 0 57.040077 0 103.972045 0 158.61248 0 23.849165-4.827136 59.602432 1.023386 78.794547 6.980301 22.897459 37.250867 19.44279 67.540992 19.44279 51.208294 0 96.830259 0 148.385485 0 0-45.366272 0-90.733466 0-136.099738 22.854451 0 45.709926 0 68.564275 0 0.681574 45.025485-1.364173 92.77911 1.023386 136.099738C872.833024 375.775642 903.395328 375.294771 905.333555 346.19392zM314.86167 240.793395c32.719462 3.621478 59.766579-27.822694 47.073997-62.421709-17.593446-47.957197-101.713613-29.932749-85.961216 30.699213C280.328806 225.830605 292.905779 238.363034 314.86167 240.793395zM760.018125 17.71264c-24.560333 0-49.120666 0-73.681101 0 0.681574 26.266214-1.363149 55.257498 1.023386 79.817933 24.219546 0 48.43817 0 72.657715 0C760.018125 70.924595 760.018125 44.318618 760.018125 17.71264zM905.333555 97.530573c0-17.396224 0-34.792448 0-52.18857-2.844877-14.55145-11.35401-23.438848-24.560333-27.629261-17.396941 0-34.793882 0-52.19072 0 0.681574 26.266214-1.363149 55.257498 1.023386 79.817933C854.848717 97.530573 880.090624 97.530573 905.333555 97.530573z"  horiz-adv-x="1024" />

    
    <glyph glyph-name="erweima1" unicode="&#58909;" d="M242.373-20.211 53.86-20.211 53.86 788.21l188.513 0c14.872 0 26.931 12.064 26.931 26.947s-12.059 26.947-26.931 26.947L26.926 842.104C12.056 842.105 0 830.041 0 815.158l0-862.316c0-14.88 12.056-26.947 26.926-26.947l215.447 0c14.872 0 26.931 12.067 26.931 26.95C269.304-32.272 257.245-20.211 242.373-20.211zM997.055 842.105 781.474 842.105c-14.88 0-26.947-12.064-26.947-26.947s12.067-26.947 26.947-26.947l188.632 0 0-808.421L781.474-20.21c-14.88 0-26.947-12.062-26.947-26.945 0-14.883 12.067-26.95 26.947-26.95l215.582 0c14.88 0 26.945 12.067 26.945 26.947L1024.001 815.158C1024 830.041 1011.936 842.105 997.055 842.105zM781.474 383.995c0 14.886-12.064 26.95-26.947 26.95L269.474 410.945c-14.883 0-26.947-12.064-26.947-26.95 0-14.883 12.064-26.945 26.947-26.945l485.053 0C769.409 357.05 781.474 369.112 781.474 383.995z"  horiz-adv-x="1025" />

    
    <glyph glyph-name="cancel" unicode="&#59163;" d="M567.027 805.875c-152.242 0-276.969-124.728-276.969-276.969v-421.875h-111.889l143.071-143.071 143.071 143.071h-111.888v421.875c0 117.392 95.38 212.772 212.772 212.772s212.772-95.38 212.772-212.772v-566.781h64.198v566.781c3.668 152.242-121.059 276.969-275.136 276.969z"  horiz-adv-x="1024" />

    
    <glyph glyph-name="duigou" unicode="&#58944;" d="M384.119471 74.883757c-11.918447 0-23.837918 4.527107-32.936133 13.573133L77.629032 360.667595c-18.196431 18.107403-18.196431 47.456848 0 65.557088 18.196431 18.107403 47.674812 18.10024 65.871243 0.007163l240.619196-239.436254 495.173776 492.739331c18.196431 18.107403 47.674812 18.107403 65.871243 0 18.196431-18.10024 18.196431-47.449685 0-65.557088L417.055604 88.464053C407.956366 79.410863 396.037918 74.883757 384.119471 74.883757z"  horiz-adv-x="1024" />

    
    <glyph glyph-name="btc" unicode="&#58889;" d="M942.427421 661.160464a17.254917 17.254917 0 1 1-28.988261-18.715833 475.626037 475.626037 0 0 0 76.013661-258.559181c0-263.229511-214.145024-477.386038-477.386038-477.386038s-477.386038 214.156527-477.386038 477.386038 214.145024 477.386038 477.386038 477.386039a475.683553 475.683553 0 0 0 166.659492-29.908523 17.254917 17.254917 0 0 1 12.055436 32.335714 511.964892 511.964892 0 1 1 251.64571-202.538216zM796.059711 767.634805a482.807533 482.807533 0 0 0 34.969965-28.562639 17.254917 17.254917 0 1 1 23.064073 25.663813c-11.963409 10.755565-24.571002 21.050999-37.47768 30.621726a17.256067 17.256067 0 1 1-20.556358-27.7229zM677.000784 723.818819l-68.352478 17.484983-28.574143-111.765849-50.395861 12.837658 28.574143 111.765849-68.858623 17.600016-28.217541-110.431469-133.207959 32.140158-18.750344-73.3449 58.563189-14.954262a27.607867 27.607867 0 0 0 19.912174-33.601075l-75.841112-296.70405a24.594008 24.594008 0 0 0-29.908523-17.738055l-48.026186 12.273998-33.359506-74.391699 133.714104-34.187742-28.067998-109.764279 67.86934-17.346944 28.067998 109.764279 50.395861-12.883671-28.067998-109.764279 68.352478-17.473479 27.941462 109.281141c117.333436-29.482902 211.349727-6.729418 238.773542 100.550153 26.917671 105.278001-32.945388 128.836714-62.508812 149.14 41.664873 13.26328 66.914568 29.908523 80.522946 83.214713 25.502767 99.76793-67.363196 150.232811-129.227826 166.049818z m-50.994032-476.005644c-16.323152-63.8662-100.57316-52.420438-203.861093-26.020415l37.500686 146.689801c118.748339-30.345647 183.166696-54.801617 166.360407-120.669386z m23.179105 217.492477c-11.698834-45.748537-47.692591-63.8662-172.928778-31.852577l34.268265 134.151229c88.828313-22.741981 152.993598-46.013112 138.660513-102.287148z"  horiz-adv-x="1024" />

    
    <glyph glyph-name="ETH" unicode="&#58892;" d="M796.059711 767.634805a482.807533 482.807533 0 0 0 34.969965-28.562639 17.254917 17.254917 0 1 1 23.064073 25.663813c-11.963409 10.755565-24.571002 21.050999-37.47768 30.621726a17.256067 17.256067 0 1 1-20.556358-27.7229zM942.427421 661.160464a17.254917 17.254917 0 1 1-28.988261-18.715833 475.626037 475.626037 0 0 0 76.013661-258.559181c0-263.229511-214.145024-477.386038-477.386038-477.386038s-477.386038 214.156527-477.386038 477.386038 214.145024 477.386038 477.386038 477.386039a475.683553 475.683553 0 0 0 166.659492-29.908523 17.254917 17.254917 0 0 1 12.055436 32.335714 511.964892 511.964892 0 1 1 251.64571-202.538216zM525.203527 500.206598l221.679671-101.746494L525.203527 766.70304v-266.496442zM498.147817 766.70304L276.468146 398.460104l221.679671 101.746494V766.70304zM525.203527 238.47251300000005l219.942676 131.010833-219.942676 100.952768V238.47251300000005zM498.147817 470.436114l-219.942676-100.952768 219.942676-131.010833V470.436114zM498.147817 0.4811939999999595V192.33286499999997L264.090619 329.187363l234.057198-328.706169zM525.203527 0.4811939999999595l234.057198 328.706169-234.057198-136.854498v-191.851671z"  horiz-adv-x="1024" />

    
    <glyph glyph-name="XLM" unicode="&#58894;" d="M796.059711 767.634805a482.807533 482.807533 0 0 0 34.969965-28.562639 17.254917 17.254917 0 1 1 23.064073 25.663813c-11.963409 10.755565-24.571002 21.050999-37.47768 30.621726a17.256067 17.256067 0 1 1-20.556358-27.7229zM942.427421 661.160464a17.254917 17.254917 0 1 1-28.988261-18.715833 475.626037 475.626037 0 0 0 76.013661-258.559181c0-263.229511-214.145024-477.386038-477.386038-477.386038s-477.386038 214.156527-477.386038 477.386038 214.145024 477.386038 477.386038 477.386039a475.683553 475.683553 0 0 0 166.659492-29.908523 17.254917 17.254917 0 0 1 12.055436 32.335714 511.964892 511.964892 0 1 1 251.64571-202.538216zM540.709946 612.398068c-19.072435-29.390875-40.157944-64.855482-59.506458-98.537079-64.268814 13.067724-133.495542-43.712457-154.983665-80.868045a3.531506 3.531506 0 0 1 4.221703-5.130462c39.364217 14.172039 84.180989 1.909544 99.813944-5.268501l-2.553728-4.796867a29.505908 29.505908 0 0 1 8.719485-38.018334l4.831377-3.450983c-30.449177-37.638726-61.634564-111.259705-22.086294-140.0179 40.261473-29.310352 96.903614 21.856228 124.235403 66.557966l4.911899-3.531506a29.505908 29.505908 0 0 1 39.502257 4.601311l4.854383 5.590593c11.813867-11.411252 39.870362-49.774684 40.261473-92.394329a3.531506 3.531506 0 0 1 6.28079-2.17412c27.481331 33.19846 58.666718 117.575005 21.856229 174.044597 31.438459 36.960032 61.887636 73.459933 74.15013 90.369752 47.335989 65.246593 25.58329 205.977696 6.395822 216.261627-2.300656 1.253857-7.270072 1.921047-14.137528 1.921048-40.169447-0.080523-146.344703-22.88002-186.767222-85.158768z m186.249574 59.483451a135.071491 135.071491 0 0 0 5.751639-21.097012 301.040786 301.040786 0 0 0 5.337521-52.834556c0.655687-44.28762-7.925759-82.041379-23.558713-103.529502-22.465902-30.966824-109.568723-131.781553-145.976598-173.699498a3.888108 3.888108 0 0 0-2.967846-1.345884 3.842095 3.842095 0 0 0-2.300656 0.747713l-111.938398 80.522946a3.934121 3.934121 0 0 0-1.150328 5.04994c20.07322 37.029052 71.182284 129.987042 112.030425 192.863959 33.773624 51.960307 129.756976 73.126338 164.772954 73.321894zM630.262965 478.706971a63.325546 63.325546 0 1 1-63.371559 63.325546 63.325546 63.325546 0 0 1 63.371559-63.325546z m0 101.067801a37.742255 37.742255 0 1 0-37.742255-37.742255 37.788268 37.788268 0 0 0 37.742255 37.742255zM255.893383 83.21737099999996l86.991239 121.552838 20.803679-14.888693L276.698211 68.32752700000003zM314.723447 94.63207299999999l51.178084 71.643566 20.817483-14.870287-51.178084-71.644717z"  horiz-adv-x="1024" />

    
    <glyph glyph-name="XRP" unicode="&#58895;" d="M796.059711 767.634805a482.807533 482.807533 0 0 0 34.969965-28.562639 17.254917 17.254917 0 1 1 23.064073 25.663813c-11.963409 10.755565-24.571002 21.050999-37.47768 30.621726a17.256067 17.256067 0 1 1-20.556358-27.7229zM942.427421 661.160464a17.254917 17.254917 0 1 1-28.988261-18.715833 475.626037 475.626037 0 0 0 76.013661-258.559181c0-263.229511-214.145024-477.386038-477.386038-477.386038s-477.386038 214.156527-477.386038 477.386038 214.145024 477.386038 477.386038 477.386039a475.683553 475.683553 0 0 0 166.659492-29.908523 17.254917 17.254917 0 0 1 12.055436 32.335714 511.964892 511.964892 0 1 1 251.64571-202.538216zM482.917477 577.117515c0-21.47662 8.052295-50.614423 16.104589-59.817046a64.510383 64.510383 0 0 0 16.104589-42.562129c0-31.449962-21.465117-57.51639-52.915079-57.51639-28.183031 0-47.16344 21.856228-60.967373 41.411801-24.709041 37.33964-63.463585 60.967374-111.581797 60.967374a138.039336 138.039336 0 1 1 113.192256-217.089863 132.885868 132.885868 0 0 1 6.441835 13.539358 56.95273 56.95273 0 0 0 109.281142-22.488909c0-13.803934-5.970201-25.640807-13.067724-36.281339-3.036865-4.601311-3.036865-5.751639-6.821444-12.204978a138.039336 138.039336 0 1 1 129.446388 83.525302h-11.79086c-31.449962 0-56.366062 24.340936-56.366063 55.790899s26.066428 55.790898 57.51639 55.790898a110.845587 110.845587 0 0 0 14.034-0.747713 138.039336 138.039336 0 1 1-148.610849 137.682735z"  horiz-adv-x="1024" />

    
    <glyph glyph-name="LTC" unicode="&#58896;" d="M796.059711 767.634805a482.807533 482.807533 0 0 0 34.969965-28.562639 17.254917 17.254917 0 1 1 23.064073 25.663813c-11.963409 10.755565-24.571002 21.050999-37.47768 30.621726a17.256067 17.256067 0 1 1-20.556358-27.7229zM942.427421 661.160464a17.254917 17.254917 0 1 1-28.988261-18.715833 475.626037 475.626037 0 0 0 76.013661-258.559181c0-263.229511-214.145024-477.386038-477.386038-477.386038s-477.386038 214.156527-477.386038 477.386038 214.145024 477.386038 477.386038 477.386039a475.683553 475.683553 0 0 0 166.659492-29.908523 17.254917 17.254917 0 0 1 12.055436 32.335714 511.964892 511.964892 0 1 1 251.64571-202.538216zM750.667776 88.69983300000001l31.058851 115.607944-303.675037-0.575164 39.111145 144.941303 89.714066 32.209179 24.156884 88.575241-90.864394-34.509834 63.83169 242.144002H421.685528l-83.97393-315.764982-69.031171-24.156884-24.156884-88.575241 70.181499 26.45754-48.325271-185.202776 484.288005-1.150328z"  horiz-adv-x="1024" />

    
    <glyph glyph-name="ETC" unicode="&#58897;" d="M796.059711 767.634805a482.807533 482.807533 0 0 0 34.969965-28.562639 17.254917 17.254917 0 1 1 23.064073 25.663813c-11.963409 10.755565-24.571002 21.050999-37.47768 30.621726a17.256067 17.256067 0 1 1-20.556358-27.7229zM942.427421 661.160464a17.254917 17.254917 0 1 1-28.988261-18.715833 475.626037 475.626037 0 0 0 76.013661-258.559181c0-263.229511-214.145024-477.386038-477.386038-477.386038s-477.386038 214.156527-477.386038 477.386038 214.145024 477.386038 477.386038 477.386039a475.683553 475.683553 0 0 0 166.659492-29.908523 17.254917 17.254917 0 0 1 12.055436 32.335714 511.964892 511.964892 0 1 1 251.64571-202.538216zM278.515729 418.234239L512.883516 541.813954l232.722818-123.579715L512.883516 766.70304 278.515729 418.234239zM735.725018 379.928323L513.297634 502.265685 288.397045 379.928323l224.900589-118.621803 222.427384 118.621803zM512.883516-1.8999850000000151l233.965172 344.764746-233.965172-114.929251-235.610141 114.929251L512.883516-1.8999850000000151z"  horiz-adv-x="1024" />

    
    <glyph glyph-name="BCH" unicode="&#58898;" d="M942.427421 661.160464a17.254917 17.254917 0 1 1-28.988261-18.715833 475.626037 475.626037 0 0 0 76.013661-258.559181c0-263.229511-214.145024-477.386038-477.386038-477.386038s-477.386038 214.156527-477.386038 477.386038 214.145024 477.386038 477.386038 477.386039a475.683553 475.683553 0 0 0 166.659492-29.908523 17.254917 17.254917 0 0 1 12.055436 32.335714 511.964892 511.964892 0 1 1 251.64571-202.538216zM796.059711 767.634805a482.807533 482.807533 0 0 0 34.969965-28.562639 17.254917 17.254917 0 1 1 23.064073 25.663813c-11.963409 10.755565-24.571002 21.050999-37.47768 30.621726a17.256067 17.256067 0 1 1-20.556358-27.7229zM494.915396 771.718469l-68.444505-17.105374L454.43536 642.697703l-50.46488-12.653606-27.964469 111.915392-68.950649-17.254917 27.607867-110.546502-132.425736-35.050488 18.405245-73.44843 58.666718 14.655176a27.607867 27.607867 0 0 0 33.359506-20.050214l74.230653-297.095161a24.594008 24.594008 0 0 0-17.864591-29.816497l-48.095205-12.020926 5.981704-81.316672 133.898157 33.451532 27.458324-109.925324 67.949864 16.978838-27.435319 109.959835 50.464881 12.653605 27.458325-109.925324 68.444504 17.105374L647.816967 159.732575c117.333436 29.839503 189.159904 94.499429 162.322757 201.928542-26.342507 105.427543-90.208706 97.720347-125.868869 101.527932 30.357151 31.472969 44.655725 58.137567 31.323426 111.489771-24.962113 99.90597-130.654232 100.182048-192.610887 84.698636zM676.172548 328.65821300000005c15.978053-63.958226-63.590121-93.924265-167.016094-119.760628l-36.695457 146.89686c118.943895 29.701464 187.273366 38.81206 203.711551-27.136232z m-82.904125 202.388673c11.445762-45.806053-11.618311-78.854971-137.027048-110.1899l-33.555062 134.289268c88.989359 22.21283 156.513601 32.197675 170.58211-24.099368z"  horiz-adv-x="1024" />

    
    <glyph glyph-name="NEO" unicode="&#58899;" d="M942.427421 661.160464a17.254917 17.254917 0 1 1-28.988261-18.715833 475.626037 475.626037 0 0 0 76.013661-258.559181c0-263.229511-214.145024-477.386038-477.386038-477.386038s-477.386038 214.156527-477.386038 477.386038 214.145024 477.386038 477.386038 477.386039a475.683553 475.683553 0 0 0 166.659492-29.908523 17.254917 17.254917 0 0 1 12.055436 32.335714 511.964892 511.964892 0 1 1 251.64571-202.538216zM796.059711 767.634805a482.807533 482.807533 0 0 0 34.969965-28.562639 17.254917 17.254917 0 1 1 23.064073 25.663813c-11.963409 10.755565-24.571002 21.050999-37.47768 30.621726a17.256067 17.256067 0 1 1-20.556358-27.7229zM794.82886 616.9073530000001l-225.165164 109.683756L240.715958 603.10342l225.153661-109.672253L794.82886 616.9073530000001zM232.61765 150.26537699999994l225.165164-109.672253 0.03451 420.628865-225.153661 109.672252-0.046013-420.628864zM794.86337 577.4050970000001l-225.153661-83.97393-0.046013-226.982682 225.165164-109.672253 0.03451 420.628865z"  horiz-adv-x="1024" />

    
    <glyph glyph-name="ADA" unicode="&#58900;" d="M942.427421 661.160464a17.254917 17.254917 0 1 1-28.988261-18.715833 475.626037 475.626037 0 0 0 76.013661-258.559181c0-263.229511-214.145024-477.386038-477.386038-477.386038s-477.386038 214.156527-477.386038 477.386038 214.145024 477.386038 477.386038 477.386039a475.683553 475.683553 0 0 0 166.659492-29.908523 17.254917 17.254917 0 0 1 12.055436 32.335714 511.964892 511.964892 0 1 1 251.64571-202.538216zM796.059711 767.634805a482.807533 482.807533 0 0 0 34.969965-28.562639 17.254917 17.254917 0 1 1 23.064073 25.663813c-11.963409 10.755565-24.571002 21.050999-37.47768 30.621726a17.256067 17.256067 0 1 1-20.556358-27.7229zM574.727456 486.675419m-46.137348-26.284271a53.099131 53.099131 0 1 1 92.274696 52.568542 53.099131 53.099131 0 1 1-92.274696-52.568542ZM516.067388 590.345182m-32.613988-18.580064a37.535196 37.535196 0 1 1 65.227975 37.160129 37.535196 37.535196 0 1 1-65.227975-37.160129ZM516.07318 171.468253m-32.613987-18.580064a37.535196 37.535196 0 1 1 65.227975 37.160128 37.535196 37.535196 0 1 1-65.227975-37.160128ZM696.663491 486.670276m-32.613987-18.580064a37.535196 37.535196 0 1 1 65.227974 37.160128 37.535196 37.535196 0 1 1-65.227974-37.160128ZM328.513352 274.56737899999996m-32.668972-18.483215a37.535196 37.535196 0 1 1 65.337944 36.96643 37.535196 37.535196 0 1 1-65.337944-36.96643ZM329.266157 486.659642m-32.613987-18.580064a37.535196 37.535196 0 1 1 65.227975 37.160128 37.535196 37.535196 0 1 1-65.227975-37.160128ZM696.66885 279.397785m-32.613988-18.580064a37.535196 37.535196 0 1 1 65.227975 37.160128 37.535196 37.535196 0 1 1-65.227975-37.160128ZM787.883113 382.05544599999996m-25.92727-14.770667a29.839503 29.839503 0 1 1 51.85454 29.541334 29.839503 29.839503 0 1 1-51.85454-29.541334ZM238.04776 382.03672300000005m-25.92727-14.770667a29.839503 29.839503 0 1 1 51.854541 29.541334 29.839503 29.839503 0 1 1-51.854541-29.541334ZM653.348383 618.382186m-0.546807-29.834493a29.839503 29.839503 0 1 1 1.093614 59.668986 29.839503 29.839503 0 1 1-1.093614-59.668986ZM372.467361 145.74755900000002m-0.546807-29.834493a29.839503 29.839503 0 1 1 1.093613 59.668986 29.839503 29.839503 0 1 1-1.093613-59.668986ZM374.069932 619.290174m-14.915242-25.844371a29.839503 29.839503 0 1 1 29.830483 51.688742 29.839503 29.839503 0 1 1-29.830483-51.688742ZM651.837355 144.78841999999997m-14.915241-25.844371a29.839503 29.839503 0 1 1 29.830482 51.688743 29.839503 29.839503 0 1 1-29.830482-51.688743ZM635.541735 380.46295899999996m-46.137347-26.284271a53.099131 53.099131 0 1 1 92.274695 52.568542 53.099131 53.099131 0 1 1-92.274695-52.568542ZM574.724409 274.22598000000005m-46.137348-26.284271a53.099131 53.099131 0 1 1 92.274696 52.568542 53.099131 53.099131 0 1 1-92.274696-52.568542ZM451.23263 486.619444m-26.284271-46.137348a53.099131 53.099131 0 1 1 52.568542 92.274695 53.099131 53.099131 0 1 1-52.568542-92.274695ZM390.405615 380.379466m-26.284271-46.137348a53.099131 53.099131 0 1 1 52.568543 92.274695 53.099131 53.099131 0 1 1-52.568543-92.274695ZM451.217287 274.157291m-26.284271-46.137348a53.099131 53.099131 0 1 1 52.568542 92.274695 53.099131 53.099131 0 1 1-52.568542-92.274695ZM512.400378 716.410708m-23.58172 0a23.58172 23.58172 0 1 1 47.16344 0 23.58172 23.58172 0 1 1-47.16344 0ZM512.400378 49.26659600000005m-23.58172 0a23.58172 23.58172 0 1 1 47.16344 0 23.58172 23.58172 0 1 1-47.16344 0ZM222.609193 547.9819150000001m-11.680193-20.485864a23.58172 23.58172 0 1 1 23.360385 40.971728 23.58172 23.58172 0 1 1-23.360385-40.971728ZM802.227845 217.57823399999995m-11.680192-20.485864a23.58172 23.58172 0 1 1 23.360384 40.971728 23.58172 23.58172 0 1 1-23.360384-40.971728ZM222.485515 217.75493600000004m-20.494013-11.665888a23.58172 23.58172 0 1 1 40.988026 23.331775 23.58172 23.58172 0 1 1-40.988026-23.331775ZM802.283632 547.8046039999999m-20.494013-11.665887a23.58172 23.58172 0 1 1 40.988027 23.331775 23.58172 23.58172 0 1 1-40.988027-23.331775ZM324.977469 701.513963m-19.244984 0a19.244984 19.244984 0 1 1 38.489968 0 19.244984 19.244984 0 1 1-38.489968 0ZM700.939105 63.54216399999996m-19.244984 0a19.244984 19.244984 0 1 1 38.489968 0 19.244984 19.244984 0 1 1-38.489968 0ZM700.155498 701.938157m-16.812464-9.365386a19.244984 19.244984 0 1 1 33.624928 18.730772 19.244984 19.244984 0 1 1-33.624928-18.730772ZM325.747596 63.04017499999998m-16.812464-9.365386a19.244984 19.244984 0 1 1 33.624928 18.730772 19.244984 19.244984 0 1 1-33.624928-18.730772ZM885.988616 378.04094599999996m-9.825391-16.547844a19.244984 19.244984 0 1 1 19.650781 33.095687 19.244984 19.244984 0 1 1-19.650781-33.095687ZM142.708182 381.518499m-9.727021-16.605856a19.244984 19.244984 0 1 1 19.454042 33.211713 19.244984 19.244984 0 1 1-19.454042-33.211713Z"  horiz-adv-x="1024" />

    
    <glyph glyph-name="XMR" unicode="&#58901;" d="M942.427421 661.160464a17.254917 17.254917 0 1 1-28.988261-18.715833 475.626037 475.626037 0 0 0 76.013661-258.559181c0-263.229511-214.145024-477.386038-477.386038-477.386038s-477.386038 214.156527-477.386038 477.386038 214.145024 477.386038 477.386038 477.386039a475.683553 475.683553 0 0 0 166.659492-29.908523 17.254917 17.254917 0 0 1 12.055436 32.335714 511.964892 511.964892 0 1 1 251.64571-202.538216zM796.059711 767.634805a482.807533 482.807533 0 0 0 34.969965-28.562639 17.254917 17.254917 0 1 1 23.064073 25.663813c-11.963409 10.755565-24.571002 21.050999-37.47768 30.621726a17.256067 17.256067 0 1 1-20.556358-27.7229zM513.251621 224.95616099999995L350.468733 383.21826v-195.555726H190.412123c66.063326-108.452905 185.432842-180.86604 321.712177-180.866041s255.637348 72.470652 321.712176 180.866041H672.641041v196.706054zM135.691029 383.21826a376.076669 376.076669 0 0 1 18.405245-116.43618h117.805071V580.487975l241.913936-241.913937L756.292879 581.0516359999999v-314.269556h113.882453a376.076669 376.076669 0 0 1 18.405244 116.43618c-0.023007 207.898744-168.557533 376.490787-376.456276 376.490787S135.691029 591.117004 135.691029 383.21826z"  horiz-adv-x="1024" />

    
    <glyph glyph-name="EOS" unicode="&#58902;" d="M942.427421 661.160464a17.254917 17.254917 0 1 1-28.988261-18.715833 475.626037 475.626037 0 0 0 76.013661-258.559181c0-263.229511-214.145024-477.386038-477.386038-477.386038s-477.386038 214.156527-477.386038 477.386038 214.145024 477.386038 477.386038 477.386039a475.683553 475.683553 0 0 0 166.659492-29.908523 17.254917 17.254917 0 0 1 12.055436 32.335714 511.964892 511.964892 0 1 1 251.64571-202.538216zM796.059711 767.634805a482.807533 482.807533 0 0 0 34.969965-28.562639 17.254917 17.254917 0 1 1 23.064073 25.663813c-11.963409 10.755565-24.571002 21.050999-37.47768 30.621726a17.256067 17.256067 0 1 1-20.556358-27.7229zM385.496215 361.77615000000003L261.088263 144.35269200000005l242.144003-144.12457-117.736051 361.548028zM257.614273 188.812862l117.402456 205.172466-42.32056 129.964036-75.081896-335.136502zM621.370931 392.34036l-108.671467 191.736638-110.385456-192.898469 110.523495-339.381212 108.533428 340.543043zM689.332298 522.925572l-40.721605-127.755406 116.447684-205.460049-75.726079 333.215455zM638.223233 362.59288300000003L522.868361 0.6422400000000152l239.072628 143.664439L638.223233 362.59288300000003zM673.423264 555.663901L525.514115 765.736765v-153.361703l106.232773-187.457419 41.676376 130.746258zM500.413963 613.134278V766.70304L348.708732 555.8249470000001l43.125789-132.448743 108.579442 189.758074z"  horiz-adv-x="1024" />

    
    <glyph glyph-name="DASH" unicode="&#58903;" d="M942.427421 661.160464a17.254917 17.254917 0 1 1-28.988261-18.715833 475.626037 475.626037 0 0 0 76.013661-258.559181c0-263.229511-214.145024-477.386038-477.386038-477.386038s-477.386038 214.156527-477.386038 477.386038 214.145024 477.386038 477.386038 477.386039a475.683553 475.683553 0 0 0 166.659492-29.908523 17.254917 17.254917 0 0 1 12.055436 32.335714 511.964892 511.964892 0 1 1 251.64571-202.538216zM796.059711 767.634805a482.807533 482.807533 0 0 0 34.969965-28.562639 17.254917 17.254917 0 1 1 23.064073 25.663813c-11.963409 10.755565-24.571002 21.050999-37.47768 30.621726a17.256067 17.256067 0 1 1-20.556358-27.7229zM291.617963 480.823574h407.676173l-64.694435-197.074159H229.937386l-30.081072-99.284793H637.233951a149.186013 149.186013 0 0 1 141.996464 103.460483l63.682148 197.775859c15.26485 47.393505-20.084723 95.914332-69.882414 95.914332H326.20832zM454.078759 428.173071H213.384169l-33.094931-93.268578h243.708449l30.081072 93.268578z"  horiz-adv-x="1024" />

    
    <glyph glyph-name="MIOTA" unicode="&#58904;" d="M942.427421 661.160464a17.254917 17.254917 0 1 1-28.988261-18.715833 475.626037 475.626037 0 0 0 76.013661-258.559181c0-263.229511-214.145024-477.386038-477.386038-477.386038s-477.386038 214.156527-477.386038 477.386038 214.145024 477.386038 477.386038 477.386039a475.683553 475.683553 0 0 0 166.659492-29.908523 17.254917 17.254917 0 0 1 12.055436 32.335714 511.964892 511.964892 0 1 1 251.64571-202.538216zM796.059711 767.634805a482.807533 482.807533 0 0 0 34.969965-28.562639 17.254917 17.254917 0 1 1 23.064073 25.663813c-11.963409 10.755565-24.571002 21.050999-37.47768 30.621726a17.256067 17.256067 0 1 1-20.556358-27.7229zM580.66083 576.7609130000001m-14.275568 0a14.275568 14.275568 0 1 1 28.551136 0 14.275568 14.275568 0 1 1-28.551136 0ZM548.394135 605.3005459999999m-17.991127 0a17.991127 17.991127 0 1 1 35.982254 0 17.991127 17.991127 0 1 1-35.982254 0ZM561.703428 523.627272m-17.036355 0a17.036355 17.036355 0 1 1 34.07271 0 17.036355 17.036355 0 1 1-34.07271 0ZM503.404815 630.12462m-19.808645 0a19.808645 19.808645 0 1 1 39.61729 0 19.808645 19.808645 0 1 1-39.61729 0ZM516.380512 548.209777m-19.808644 0a19.808645 19.808645 0 1 1 39.617289 0 19.808645 19.808645 0 1 1-39.617289 0ZM553.202505 458.24264m-19.808644 0a19.808645 19.808645 0 1 1 39.617289 0 19.808645 19.808645 0 1 1-39.617289 0ZM445.692869 646.263719m-22.960543 0a22.960543 22.960543 0 1 1 45.921086 0 22.960543 22.960543 0 1 1-45.921086 0ZM494.71984 474.370235m-22.960543 0a22.960543 22.960543 0 1 1 45.921086 0 22.960543 22.960543 0 1 1-45.921086 0ZM458.415494 564.9125369999999m-22.960542 0a22.960543 22.960543 0 1 1 45.921085 0 22.960543 22.960543 0 1 1-45.921085 0ZM374.959212 649.933265m-26.630088 0a26.630089 26.630089 0 1 1 53.260177 0 26.630089 26.630089 0 1 1-53.260177 0ZM387.371249 568.950187m-26.630088 0a26.630089 26.630089 0 1 1 53.260177 0 26.630089 26.630089 0 1 1-53.260177 0ZM424.791413 478.039781m-26.630089 0a26.630089 26.630089 0 1 1 53.260177 0 26.630089 26.630089 0 1 1-53.260177 0ZM292.423193 636.025801m-30.713753 0a30.713752 30.713752 0 1 1 61.427505 0 30.713752 30.713752 0 1 1-61.427505 0ZM305.456407 554.3410240000001m-30.713753 0a30.713752 30.713752 0 1 1 61.427505 0 30.713752 30.713752 0 1 1-61.427505 0ZM342.370426 463.131533m-30.713753 0a30.713752 30.713752 0 1 1 61.427505 0 30.713752 30.713752 0 1 1-61.427505 0ZM215.167177 515.563474m-36.591927 0a36.591927 36.591927 0 1 1 73.183855 0 36.591927 36.591927 0 1 1-73.183855 0ZM251.759105 425.60784m-36.591928 0a36.591927 36.591927 0 1 1 73.183855 0 36.591927 36.591927 0 1 1-73.183855 0ZM159.295756 356.72621100000003m-43.033763 0a43.033763 43.033763 0 1 1 86.067526 0 43.033763 43.033763 0 1 1-86.067526 0ZM312.36772 348.41510100000005m-12.405143-7.064295a14.275568 14.275568 0 1 1 24.810286 14.12859 14.275568 14.275568 0 1 1-24.810286-14.12859ZM303.581382 306.327099m-15.632325-8.905676a17.991127 17.991127 0 1 1 31.26465 17.811352 17.991127 17.991127 0 1 1-31.26465-17.811352ZM367.935123 358.28171999999995m-14.802732-8.43306a17.036355 17.036355 0 1 1 29.605464 16.86612 17.036355 17.036355 0 1 1-29.605464-16.86612ZM304.279262 254.96097899999995m-17.201554-9.79966a19.797141 19.797141 0 1 1 34.403109 19.59932 19.797141 19.797141 0 1 1-34.403109-19.59932ZM369.013833 306.74764000000005m-17.211549-9.805354a19.808645 19.808645 0 1 1 34.423099 19.610708 19.808645 19.808645 0 1 1-34.423099-19.610708ZM428.974206 383.30959900000005m-17.201554-9.79966a19.797141 19.797141 0 1 1 34.403109 19.59932 19.797141 19.797141 0 1 1-34.403109-19.59932ZM318.808541 196.79311299999995m-19.950205-11.365556a22.960543 22.960543 0 1 1 39.90041 22.731111 22.960543 22.960543 0 1 1-39.90041-22.731111ZM443.88487 324.44454499999995m-19.950205-11.365556a22.960543 22.960543 0 1 1 39.90041 22.731111 22.960543 22.960543 0 1 1-39.90041-22.731111ZM383.180618 248.082353m-19.950205-11.365555a22.960543 22.960543 0 1 1 39.90041 22.731111 22.960543 22.960543 0 1 1-39.90041-22.731111ZM350.652528 133.53507000000002m-23.138639-13.181994a26.630089 26.630089 0 1 1 46.277279 26.363989 26.630089 26.630089 0 1 1-46.277279-26.363989ZM414.86476 184.41256299999998m-23.13864-13.181995a26.630089 26.630089 0 1 1 46.277279 26.36399 26.630089 26.630089 0 1 1-46.277279-26.36399ZM475.332388 261.913595m-23.138639-13.181994a26.630089 26.630089 0 1 1 46.277279 26.363989 26.630089 26.630089 0 1 1-46.277279-26.363989ZM403.563087 68.67336699999998m-26.686898-15.203423a30.713752 30.713752 0 1 1 53.373795 30.406847 30.713752 30.713752 0 1 1-53.373795-30.406847ZM468.103238 120.47959300000002m-26.686898-15.203424a30.713752 30.713752 0 1 1 53.373795 30.406847 30.713752 30.713752 0 1 1-53.373795-30.406847ZM529.086148 197.71549800000003m-26.686898-15.203424a30.713752 30.713752 0 1 1 53.373795 30.406847 30.713752 30.713752 0 1 1-53.373795-30.406847ZM546.478 61.200781000000006m-31.79439-18.113143a36.591927 36.591927 0 1 1 63.58878 36.226285 36.591927 36.591927 0 1 1-63.58878-36.226285ZM606.533803 137.51522m-31.794389-18.113143a36.591927 36.591927 0 1 1 63.588779 36.226286 36.591927 36.591927 0 1 1-63.588779-36.226286ZM712.124334 91.24574399999995m-37.391642-21.301875a43.033763 43.033763 0 1 1 74.783283 42.603751 43.033763 43.033763 0 1 1-74.783283-42.603751ZM643.845514 228.51723800000002m-7.096747-12.386607a14.275568 14.275568 0 1 1 14.193495 24.773213 14.275568 14.275568 0 1 1-14.193495-24.773213ZM684.653016 242.34799699999996m-8.946571-15.608956a17.991127 17.991127 0 1 1 17.893142 31.217912 17.991127 17.991127 0 1 1-17.893142-31.217912ZM607.19464 271.363513m-8.471785-14.780604a17.036355 17.036355 0 1 1 16.94357 29.561207 17.036355 17.036355 0 1 1-16.94357-29.561207ZM728.566037 268.99935000000005m-9.85038-17.185821a19.808645 19.808645 0 1 1 19.70076 34.371641 19.808645 19.808645 0 1 1-19.70076-34.371641ZM651.063796 298.42672300000004m-9.84466-17.17584a19.797141 19.797141 0 1 1 19.68932 34.35168 19.797141 19.797141 0 1 1-19.68932-34.35168ZM554.702792 311.204343m-9.84466-17.17584a19.797141 19.797141 0 1 1 19.68932 34.35168 19.797141 19.797141 0 1 1-19.68932-34.35168ZM771.240602 311.090318m-11.417747-19.920382a22.960543 22.960543 0 1 1 22.835493 39.840763 22.960543 22.960543 0 1 1-22.835493-39.840763ZM597.781673 353.92216099999996m-11.417746-19.920382a22.960543 22.960543 0 1 1 22.835492 39.840764 22.960543 22.960543 0 1 1-22.835492-39.840764ZM694.391192 340.397198m-11.417746-19.920382a22.960543 22.960543 0 1 1 22.835492 39.840763 22.960543 22.960543 0 1 1-22.835492-39.840763ZM809.614023 370.61174400000004m-13.242526-23.10405a26.630089 26.630089 0 1 1 26.485053 46.2081 26.630089 26.630089 0 1 1-26.485053-46.2081ZM733.205962 400.074421m-13.242526-23.10405a26.630089 26.630089 0 1 1 26.485053 46.208099 26.630089 26.630089 0 1 1-26.485053-46.208099ZM635.705057 412.838387m-13.242526-23.10405a26.630089 26.630089 0 1 1 26.485052 46.2081 26.630089 26.630089 0 1 1-26.485052-46.2081ZM838.612819 449.075235m-15.273238-26.647003a30.713752 30.713752 0 1 1 30.546475 53.294007 30.713752 30.713752 0 1 1-30.546475-53.294007ZM761.290421 478.365786m-15.273238-26.647004a30.713752 30.713752 0 1 1 30.546475 53.294007 30.713752 30.713752 0 1 1-30.546475-53.294007ZM663.748473 491.762798m-15.273238-26.647004a30.713752 30.713752 0 1 1 30.546475 53.294007 30.713752 30.713752 0 1 1-30.546475-53.294007ZM772.515499 576.021367m-18.196318-31.74686a36.591927 36.591927 0 1 1 36.392636 63.493721 36.591927 36.591927 0 1 1-36.392636-63.493721ZM676.248957 589.044441m-18.196318-31.746861a36.591927 36.591927 0 1 1 36.392636 63.493721 36.591927 36.591927 0 1 1-36.392636-63.493721ZM662.500778 703.468547m-21.393973-37.325765a43.02226 43.02226 0 1 1 42.787946 74.65153 43.02226 43.02226 0 1 1-42.787946-74.65153Z"  horiz-adv-x="1024" />

    
    <glyph glyph-name="XEM" unicode="&#58905;" d="M942.427421 661.160464a17.254917 17.254917 0 1 1-28.988261-18.715833 475.626037 475.626037 0 0 0 76.013661-258.559181c0-263.229511-214.145024-477.386038-477.386038-477.386038s-477.386038 214.156527-477.386038 477.386038 214.145024 477.386038 477.386038 477.386039a475.683553 475.683553 0 0 0 166.659492-29.908523 17.254917 17.254917 0 0 1 12.055436 32.335714 511.964892 511.964892 0 1 1 251.64571-202.538216zM796.059711 767.634805a482.807533 482.807533 0 0 0 34.969965-28.562639 17.254917 17.254917 0 1 1 23.064073 25.663813c-11.963409 10.755565-24.571002 21.050999-37.47768 30.621726a17.256067 17.256067 0 1 1-20.556358-27.7229zM527.124574 495.260188a154.811116 154.811116 0 0 1 73.678496-131.931095q4.083664-2.220133 8.052295-4.601312a185.685914 185.685914 0 0 0 87.286873-184.052448 650.959 650.959 0 0 1 130.240114 264.195786q6.499352 27.860939 10.583016 56.607632a658.6777 658.6777 0 0 1 6.487849 92.371322v1.978564a650.452856 650.452856 0 0 1-99.215773 47.358996q-9.996349 3.773075-20.14224 7.224058a155.041181 155.041181 0 0 1-196.97063-149.151503zM589.897962 660.596803a187.11232 187.11232 0 0 0 23.006556 11.353736 650.959 650.959 0 0 1-293.885747-20.579365q-27.343292-8.4204-54.237956-19.37152a658.666197 658.666197 0 0 1-83.06517-40.91716l-1.702485-1.012288a650.464359 650.464359 0 0 1 9.064583-109.568723q1.783008-10.537003 3.911114-21.039496a154.949155 154.949155 0 0 1 304.882881 35.084998q-0.138039 4.601311 0 9.283145a185.432842 185.432842 0 0 0 92.026224 156.766673zM390.258572 106.75997900000004q20.947469-19.498056 43.861999-37.316634a658.689203 658.689203 0 0 1 76.92242-51.546188l1.725492-0.977779a650.452856 650.452856 0 0 1 90.404262 62.554826q8.236347 6.798437 16.277139 13.89596a154.949155 154.949155 0 0 1-182.614539 246.664791q-3.957128-2.438695-8.052295-4.670331a185.685914 185.685914 0 0 0-203.11338 15.759491A650.959 650.959 0 0 1 390.258572 106.75997900000004z"  horiz-adv-x="1024" />

    
    <glyph glyph-name="USDT" unicode="&#58906;" d="M942.427421 661.160464a17.254917 17.254917 0 1 1-28.988261-18.715833 475.626037 475.626037 0 0 0 76.013661-258.559181c0-263.229511-214.145024-477.386038-477.386038-477.386038s-477.386038 214.156527-477.386038 477.386038 214.145024 477.386038 477.386038 477.386039a475.683553 475.683553 0 0 0 166.659492-29.908523 17.254917 17.254917 0 0 1 12.055436 32.335714 511.964892 511.964892 0 1 1 251.64571-202.538216zM796.059711 767.634805a482.807533 482.807533 0 0 0 34.969965-28.562639 17.254917 17.254917 0 1 1 23.064073 25.663813c-11.963409 10.755565-24.571002 21.050999-37.47768 30.621726a17.256067 17.256067 0 1 1-20.556358-27.7229zM763.06831 561.599593v121.934747h-499.242267v-121.934747h184.052449v-79.660201c-149.611634-6.729418-262.274739-36.223823-262.274739-71.607905s112.663105-64.878488 262.274739-71.607906V83.06322699999998h131.137369V338.78109700000005c149.03647 6.832947 261.124411 36.269836 261.124412 71.55039s-112.087941 64.728945-261.124412 71.550389v79.717717z m20.7059-144.067054c0-23.271131-87.114325-42.792194-204.758349-48.210239l-7.603666-0.322091h-0.83974l-7.132032-0.264576h-0.77072q-7.948765-0.276079-16.104589-0.460131h-0.333595l-7.293078-0.149543h-2.059087l-5.751639-0.080522h-36.430882l-5.694122 0.080522h-1.978564l-6.798437 0.13804h-0.747713q-12.089945 0.276079-23.823289 0.73621h-0.10353l-7.787719 0.333595c-118.230692 5.337521-205.908677 24.927603-205.908677 48.313767s87.689488 42.91873 205.908677 48.313768v-73.954574c20.521848-1.069805 42.35507-1.656472 64.993521-1.656472 23.006556 0 45.276902 0.59817 66.143849 1.713988v73.678496c117.747554-5.406541 204.873382-24.939107 204.873381-48.210238z"  horiz-adv-x="1024" />

    
    <glyph glyph-name="VEN" unicode="&#58907;" d="M942.427421 661.160464a17.254917 17.254917 0 1 1-28.988261-18.715833 475.626037 475.626037 0 0 0 76.013661-258.559181c0-263.229511-214.145024-477.386038-477.386038-477.386038s-477.386038 214.156527-477.386038 477.386038 214.145024 477.386038 477.386038 477.386039a475.683553 475.683553 0 0 0 166.659492-29.908523 17.254917 17.254917 0 0 1 12.055436 32.335714 511.964892 511.964892 0 1 1 251.64571-202.538216zM796.059711 767.634805a482.807533 482.807533 0 0 0 34.969965-28.562639 17.254917 17.254917 0 1 1 23.064073 25.663813c-11.963409 10.755565-24.571002 21.050999-37.47768 30.621726a17.256067 17.256067 0 1 1-20.556358-27.7229zM806.447171 605.9677360000001a13.286286 13.286286 0 0 1-11.917396-7.431118L596.799929 195.77234499999997c-17.254917-35.188527-67.443719-35.188527-84.710139 0L315.22269 596.9146559999999a16.173609 16.173609 0 0 1-14.517137 9.041577h-91.796159a12.584586 12.584586 0 0 1-11.273212-18.117663l271.937492-554.089896c16.944329-34.509834 66.143849-34.509834 83.088177 0l274.042593 558.277089a9.674257 9.674257 0 0 1-8.684975 13.941973z"  horiz-adv-x="1024" />

    
    <glyph glyph-name="TAU" unicode="&#58908;" d="M942.427421 661.160464a17.254917 17.254917 0 1 1-28.988261-18.715833 475.626037 475.626037 0 0 0 76.013661-258.559181c0-263.229511-214.145024-477.386038-477.386038-477.386038s-477.386038 214.156527-477.386038 477.386038 214.145024 477.386038 477.386038 477.386039a475.683553 475.683553 0 0 0 166.659492-29.908523 17.254917 17.254917 0 0 1 12.055436 32.335714 511.964892 511.964892 0 1 1 251.64571-202.538216zM796.059711 767.634805a482.807533 482.807533 0 0 0 34.969965-28.562639 17.254917 17.254917 0 1 1 23.064073 25.663813c-11.963409 10.755565-24.571002 21.050999-37.47768 30.621726a17.256067 17.256067 0 1 1-20.556358-27.7229zM499.436184 777.987756l-79.924776-79.924776 79.924776-79.936279V777.987756zM523.91516 618.126701l79.924775 79.936279-79.924775 79.924776v-159.861055zM499.436184 149.092042l-79.924776-79.924775 79.924776-79.936279V149.092042zM523.91516-10.769011999999975l79.924775 79.936279-79.924775 79.924775v-159.861054zM708.669308 568.7661350000001l-79.936279-79.924776 79.936279-79.936279V568.7661350000001zM733.13678 568.7661350000001v-159.861055l79.936279 79.936279-79.936279 79.924776zM290.214563 568.7661350000001l-79.924776-79.924776 79.924776-79.936279V568.7661350000001zM314.682036 408.90508l79.936279 79.936279-79.936279 79.924776v-159.861055zM708.669308 361.99471200000005l-79.936279-79.936279L708.669308 202.12215400000002V361.99471200000005zM733.13678 361.99471200000005V202.12215400000002l79.936279 79.936279-79.936279 79.936279zM290.214563 361.99471200000005l-79.924776-79.936279L290.214563 202.12215400000002V361.99471200000005zM314.682036 202.12215400000002l79.936279 79.936279-79.936279 79.936279V202.12215400000002zM616.286482 685.616433l-79.936279-79.936279h159.872558l-79.936279 79.936279zM616.286482 501.276403l79.936279 79.936279H536.350203l79.936279-79.936279zM407.064861 686.019048l-79.936279-79.936279H487.00114l-79.936279 79.936279zM407.064861 501.679017l79.936279 79.936279H327.128582l79.936279-79.936279zM616.286482 268.39253900000006l-79.936279-79.936279h159.872558l-79.936279 79.936279zM696.222761 163.988788H536.350203l79.936279-79.936279 79.936279 79.936279zM327.128582 188.858875H487.00114l-79.936279 79.936279-79.936279-79.936279zM487.00114 164.39140199999997H327.128582l79.936279-79.936279 79.936279 79.936279zM826.117777 476.187753l-79.924776-79.936279h159.861055L826.117777 476.187753zM826.117777 291.847723l79.936279 79.936279H746.193001L826.117777 291.847723zM197.233567 475.566576l-79.936279-79.924775h159.861055l-79.924776 79.924775zM197.233567 291.23804900000005l79.924776 79.924776H117.297288l79.936279-79.924776z"  horiz-adv-x="1024" />

    
    <glyph glyph-name="MOBI" unicode="&#58910;" d="M942.427421 661.160464a17.254917 17.254917 0 1 1-28.988261-18.715833 475.626037 475.626037 0 0 0 76.013661-258.559181c0-263.229511-214.145024-477.386038-477.386038-477.386038s-477.386038 214.156527-477.386038 477.386038 214.145024 477.386038 477.386038 477.386039a475.683553 475.683553 0 0 0 166.659492-29.908523 17.254917 17.254917 0 0 1 12.055436 32.335714 511.964892 511.964892 0 1 1 251.64571-202.538216zM796.059711 767.634805a482.807533 482.807533 0 0 0 34.969965-28.562639 17.254917 17.254917 0 1 1 23.064073 25.663813c-11.963409 10.755565-24.571002 21.050999-37.47768 30.621726a17.256067 17.256067 0 1 1-20.556358-27.7229zM281.472072 535.590681c-61.956655 0-113.06572-28.344077-140.708097-71.941501 0.621177-2.484708 1.230851-5.049939 1.863531-7.695693 3.577519-14.954261 7.695693-32.151662 15.586942-46.46174 14.310078 13.86145 34.049703 26.975187 61.956655 29.597935 40.583565 3.807585 62.600839-1.29987 211.280708-83.467786-67.823327-23.489694-157.893994-32.381728-194.324876-23.489693-35.246044 8.592949-59.161359 21.166032-75.841112 35.073494-20.7059 14.436614-31.058851 36.752973-37.535196 57.999528a148.691372 148.691372 0 0 1-5.303011-39.594283c0-45.645007 5.222488-121.290564 114.768204-139.546266 93.038513-15.506419 194.324876 35.211534 239.969883 86.067527 43.033763-20.866946 186.353104-106.037217 275.181418-100.423618 69.583329 4.394252 107.48663 37.581209 128.744687 74.161634-1.610459 20.981979-7.143536 39.858858-15.391386 53.754818-36.10879-31.714538-74.012091-28.194534-118.564286-17.047858-56.159003 14.033999-104.334732 46.956381-147.379999 67.86934 108.867023 32.657806 209.865804 43.988535 270.775662-15.93204 11.583801-12.112952 22.672961-28.286561 28.574143-46.220171a300.94876 300.94876 0 0 1 8.443406 37.37415c10.893604 65.361626-35.211534 114.768205-95.201129 130.424167-75.438497 19.682109-177.369044-5.222488-256.925715-82.167915-119.990693 70.411565-208.680967 101.665971-269.970432 101.665971z"  horiz-adv-x="1024" />

    
    <glyph glyph-name="BTG" unicode="&#58911;" d="M942.427421 661.160464a17.254917 17.254917 0 1 1-28.988261-18.715833 475.626037 475.626037 0 0 0 76.013661-258.559181c0-263.229511-214.145024-477.386038-477.386038-477.386038s-477.386038 214.156527-477.386038 477.386038 214.145024 477.386038 477.386038 477.386039a475.683553 475.683553 0 0 0 166.659492-29.908523 17.254917 17.254917 0 0 1 12.055436 32.335714 511.964892 511.964892 0 1 1 251.64571-202.538216zM796.059711 767.634805a482.807533 482.807533 0 0 0 34.969965-28.562639 17.254917 17.254917 0 1 1 23.064073 25.663813c-11.963409 10.755565-24.571002 21.050999-37.47768 30.621726a17.256067 17.256067 0 1 1-20.556358-27.7229zM511.042991 779.356646c-218.562283 0-395.712764-177.150482-395.712764-395.712764s177.150482-395.712764 395.712764-395.712765 395.712764 177.150482 395.712765 395.712765-177.138978 395.712764-395.712765 395.712764z m0-705.415519c-171.019234 0-309.656741 138.637507-309.656741 309.656741S340.023757 693.25461 511.042991 693.25461s309.656741-138.637507 309.656742-309.702755S682.062226 73.94112700000005 511.042991 73.94112700000005zM607.359938 318.247746c0.138039 45.311412-45.506968 50.614423-127.203248 50.855992 0 0-0.230066-75.51902-0.310589-100.929761 71.067252-0.218562 127.375798 6.096737 127.513837 50.073769zM586.861097 462.602382c0.115033 38.685524-45.184876 43.286835-106.290289 43.470888l-0.287582-92.267793c86.171056-0.264575 106.485845 17.312433 106.577871 48.796905zM515.609793 624.47651c-1.518433 0-3.036865 0.057516-4.601311 0.057517a243.271324 243.271324 0 0 1-30.115582-1.875035l-0.195556-65.09705 34.67088-0.103529zM350.434224 268.231493l33.037414-0.103529a16.392171 16.392171 0 0 1 16.438184 16.346158l0.621177 204.125668a18.405245 18.405245 0 0 1-18.405244 18.462762l-40.261474 0.126536 0.149543 48.106708a240.176942 240.176942 0 0 1-71.906991-171.743941c0-105.680615 68.04189-195.452197 162.702365-227.937454l0.184052 58.839267-92.026224 0.276079zM433.361355 558.654753l0.161046 53.133642a240.867139 240.867139 0 0 1-89.046875-54.065407zM562.62369 618.977943l-0.184052-62.002668c42.562129-0.126536 110.822581-17.588512 110.615521-86.274585-0.115033-36.660947-13.711907-51.546189-38.478465-66.914569 22.419889-8.293863 64.959011-13.803934 64.728946-86.194062-0.230066-73.805032-57.251815-103.840091-137.912801-103.932117l-0.253072-65.752737c109.039572 23.075576 190.839383 119.829647 190.839383 235.64465 0 115.400885-81.086607 211.809858-189.35546 235.426088zM479.466493 144.7323a243.133284 243.133284 0 0 1 31.576498-2.059087h3.094382l0.218563 71.469867-34.67088 0.103529z"  horiz-adv-x="1024" />

    
    <glyph glyph-name="LSK" unicode="&#58912;" d="M942.427421 661.160464a17.254917 17.254917 0 1 1-28.988261-18.715833 475.626037 475.626037 0 0 0 76.013661-258.559181c0-263.229511-214.145024-477.386038-477.386038-477.386038s-477.386038 214.156527-477.386038 477.386038 214.145024 477.386038 477.386038 477.386039a475.683553 475.683553 0 0 0 166.659492-29.908523 17.254917 17.254917 0 0 1 12.055436 32.335714 511.964892 511.964892 0 1 1 251.64571-202.538216zM796.059711 767.634805a482.807533 482.807533 0 0 0 34.969965-28.562639 17.254917 17.254917 0 1 1 23.064073 25.663813c-11.963409 10.755565-24.571002 21.050999-37.47768 30.621726a17.256067 17.256067 0 1 1-20.556358-27.7229zM817.306266 223.08112700000004L512.572927 745.4564849999999l-63.854696-109.936828L682.016213 235.59669299999996 486.253427 22.40644199999997h146.781828l184.271011 200.674685zM424.860432 594.429948L209.196976 223.08112700000004l183.442775-200.674685h45.783046l106.037217 115.481408h-101.608455l-95.638253 104.61081 141.156724 243.052762-63.509598 108.878526z"  horiz-adv-x="1024" />

    
    <glyph glyph-name="QUMT" unicode="&#58913;" d="M942.427421 661.160464a17.254917 17.254917 0 1 1-28.988261-18.715833 475.626037 475.626037 0 0 0 76.013661-258.559181c0-263.229511-214.145024-477.386038-477.386038-477.386038s-477.386038 214.156527-477.386038 477.386038 214.145024 477.386038 477.386038 477.386039a475.683553 475.683553 0 0 0 166.659492-29.908523 17.254917 17.254917 0 0 1 12.055436 32.335714 511.964892 511.964892 0 1 1 251.64571-202.538216zM796.059711 767.634805a482.807533 482.807533 0 0 0 34.969965-28.562639 17.254917 17.254917 0 1 1 23.064073 25.663813c-11.963409 10.755565-24.571002 21.050999-37.47768 30.621726a17.256067 17.256067 0 1 1-20.556358-27.7229zM599.756272 687.031336a25.01963 25.01963 0 0 1-49.23403 6.257784H411.206041a25.01963 25.01963 0 1 1-47.393505-15.655962l-113.594871-82.53602a25.008126 25.008126 0 1 1-30.012052-39.640296l-43.470888-133.80613c-0.414118 0-0.816733 0.057516-1.23085 0.057517a25.031133 25.031133 0 0 1 0-50.062266c0.552157 0 1.081308 0 1.621962 0.080522l43.079776-132.575279a25.008126 25.008126 0 1 1 29.19532-40.318989l114.36559-83.088178a25.008126 25.008126 0 1 1 47.393505-15.655961h139.304697a25.01963 25.01963 0 1 1 47.105924 16.357661l128.065994 93.050016 1.311374-0.609673 0.172549 0.379608 63.268029-53.800831a36.350359 36.350359 0 1 1 8.328373 9.352165l-64.809468 55.146714 49.314553 151.84327c0.586667 0 1.150328-0.092026 1.748498-0.092026a25.031133 25.031133 0 0 1 0 50.062266c-0.414118 0-0.816733 0-1.230851-0.057516l-43.470887 133.73711a25.008126 25.008126 0 1 1-29.908523 39.697813l-112.663105 81.857326a24.927603 24.927603 0 0 1 2.059087 10.019355z m-35.084998-22.91453a24.467472 24.467472 0 0 1 14.218051-1.736995l45.668014-103.195907a25.05414 25.05414 0 0 1-8.052295-10.836088l-111.880882 12.273998a24.870087 24.870087 0 0 1-5.038435 13.803934z m-171.398843-243.22531a24.501982 24.501982 0 0 1-11.503278 0.253072l-46.208668 99.043224a24.973617 24.973617 0 0 1 8.730988 16.104589l112.801145 12.366024a25.065643 25.065643 0 0 1 5.590593-7.592164z m80.384907 114.204544a24.605512 24.605512 0 0 1 13.148247 0.322092l70.00895-121.267557a24.973617 24.973617 0 0 1-6.303797-11.204193h-139.304697a24.973617 24.973617 0 0 1-6.993993 11.882886z m-103.115384-119.634091a24.98512 24.98512 0 0 1-7.741706-12.56158h-93.004003a25.008126 25.008126 0 0 1-8.052295 12.849161l53.110635 98.928192a24.432963 24.432963 0 0 1 9.375171 0z m-100.745709-25.008127h93.004003a25.008126 25.008126 0 0 1 8.052294-12.826155l-45.714027-97.984922a24.363943 24.363943 0 0 1-11.296219 0l-52.408934 97.651327a25.01963 25.01963 0 0 1 8.362883 13.15975z m112.283496-18.278709a24.582505 24.582505 0 0 1 10.744062 0.218563l69.019668-119.507556a25.05414 25.05414 0 0 1-5.349024-8.052294l-112.122451 12.297004a24.927603 24.927603 0 0 1-8.155824 16.691256z m21.856229 6.096738a24.973617 24.973617 0 0 1 7.270071 12.181971h139.304697a24.98512 24.98512 0 0 1 6.614385-11.503278l-69.295747-120.082719a24.709041 24.709041 0 0 1-15.26485 0.448628z m164.059751-5.636607a23.949825 23.949825 0 0 1 10.675042-0.621177l45.391935-97.306228a24.973617 24.973617 0 0 1-9.145106-17.254917l-112.271993-12.308508a25.008126 25.008126 0 0 1-4.34824 6.763928z m22.166817 4.371246a25.008126 25.008126 0 0 1 8.823014 13.458835h91.750146a25.01963 25.01963 0 0 1 8.443406-13.251776l-52.523968-97.881393a24.28342 24.28342 0 0 1-11.250206 0.563661z m100.561656 25.962899h-91.796158a25.008126 25.008126 0 0 1-8.512426 13.228769l45.921086 98.422047a23.604727 23.604727 0 0 1 9.317655 0.448628l53.202661-99.146753a25.01963 25.01963 0 0 1-8.178831-12.975698z m-111.673823 18.405244a24.409956 24.409956 0 0 1-11.503278-0.66719l-69.997447 121.244551a25.065643 25.065643 0 0 1 4.520789 6.407326l113.008203-12.389031a24.973617 24.973617 0 0 1 9.72027-16.518707zM411.206041 680.773553h139.304697a24.893094 24.893094 0 0 1 4.325233-8.903537l-65.108554-89.610536a24.858584 24.858584 0 0 1-19.279494 0.391111l-64.211298 88.379686a24.939107 24.939107 0 0 1 4.969416 9.743276z m-24.156883-18.77335a24.927603 24.927603 0 0 1 9.076086 1.725492l64.234304-88.402692a24.904597 24.904597 0 0 1-5.648109-14.379097l-112.018921-12.285501a25.065643 25.065643 0 0 1-7.05151 9.789289l46.047622 104.139176a25.077146 25.077146 0 0 1 5.314514-0.586667z m-17.254917 4.440266l-45.380432-102.540221a24.962113 24.962113 0 0 1-25.203682-9.950335l-41.411801 19.26799a24.156884 24.156884 0 0 1-0.885753 11.284716zM229.672811 544.0916030000001l8.397393-123.522199a25.05414 25.05414 0 0 1-16.691257-17.623022h-21.672175a25.031133 25.031133 0 0 1-11.031644 14.954261z m0.115033-293.920256l-40.767618 125.477756a25.031133 25.031133 0 0 1 10.686546 14.804719h21.660672a25.05414 25.05414 0 0 1 16.748773-17.634525z m23.121588 311.520272l41.664874-19.394527a24.824074 24.824074 0 0 1 8.892033-22.235836l-52.915079-98.640609-8.972556 131.965605a25.042636 25.042636 0 0 1 11.330728 8.305367z m-11.192689-320.492829l8.834517 129.883512L302.718626 273.86809900000003a24.939107 24.939107 0 0 1-8.31687-18.6008v-1.242354a25.215185 25.215185 0 0 1 0.184053-2.898826l-40.963173-19.106945a25.065643 25.065643 0 0 1-11.905893 9.168112z m14.827725-32.048133a24.927603 24.927603 0 0 1 1.54144 8.592949c0 0.851243 0 1.690982-0.126536 2.507714l41.135722 19.187468a24.962113 24.962113 0 0 1 25.203682-9.950335l45.380432-102.540221z m139.52326-79.487651a24.743551 24.743551 0 0 1-14.413608 1.150328l-46.070628 104.116169a25.065643 25.065643 0 0 1 7.051509 9.78929l112.018922-12.285501a24.904597 24.904597 0 0 1 5.648109-14.379098z m154.431507-17.047858H411.206041a24.939107 24.939107 0 0 1-4.969416 9.743276l64.211298 88.379685a24.858584 24.858584 0 0 1 19.279494 0.391112l65.108554-89.610536a24.893094 24.893094 0 0 1-4.325233-8.91504z m24.156884 18.77335a24.9161 24.9161 0 0 1-10.053865-2.116604l-65.13156 89.645046a24.870087 24.870087 0 0 1 5.038436 13.803934l111.880882 12.273997a25.05414 25.05414 0 0 1 8.052294-10.836087l-45.668013-103.195908a25.088649 25.088649 0 0 1-4.049154 0.414118z m16.104589-4.428762l45.299909 102.379174a24.709041 24.709041 0 0 1 24.398453 10.617526l52.247889-24.375446z m140.178946 416.706246l40.848141-125.730829a25.031133 25.031133 0 0 1-11.031644-14.954261h-21.660673a25.05414 25.05414 0 0 1-16.518707 17.554002z m8.155824-153.21216h21.660673a25.031133 25.031133 0 0 1 10.583016-14.724196l-40.537552-124.810566-8.28236 121.934747a25.05414 25.05414 0 0 1 16.576223 17.600015z m-21.131521-163.553607l-53.294687 24.847081c0.06902 0.747713 0.115033 1.506929 0.115032 2.300655v0.621177 0.621177a24.95061 24.95061 0 0 1-7.362098 17.726552l52.627497 98.076948 9.651251-142.08849z m1.081308 326.428521l-8.961054-131.908089-53.398216 99.503355a24.939107 24.939107 0 0 1 8.132817 18.405244c0 0.77072 0 1.529936-0.115033 2.300656l42.884221 20.0042a25.042636 25.042636 0 0 1 11.468768-8.305366z m-15.471909 31.254406a24.156884 24.156884 0 0 1-0.908759-11.434258l-42.21703-19.693612a24.709041 24.709041 0 0 1-24.398453 10.617525l-45.345922 102.528717z"  horiz-adv-x="1024" />

    
    <glyph glyph-name="OMG" unicode="&#58914;" d="M796.059711 767.634805a482.807533 482.807533 0 0 0 34.969965-28.562639 17.254917 17.254917 0 1 1 23.064073 25.663813c-11.963409 10.755565-24.571002 21.050999-37.47768 30.621726a17.256067 17.256067 0 1 1-20.556358-27.7229zM942.427421 661.160464a17.254917 17.254917 0 1 1-28.988261-18.715833 475.626037 475.626037 0 0 0 76.013661-258.559181c0-263.229511-214.145024-477.386038-477.386038-477.386038s-477.386038 214.156527-477.386038 477.386038 214.145024 477.386038 477.386038 477.386039a475.683553 475.683553 0 0 0 166.659492-29.908523 17.254917 17.254917 0 0 1 12.055436 32.335714 511.964892 511.964892 0 1 1 251.64571-202.538216zM348.823765 66.31445399999996a154.385494 154.385494 0 1 1-154.385495 154.385494 154.385494 154.385494 0 0 1 154.385495-154.385494z m0 260.537744a106.140746 106.140746 0 1 0-106.140747-106.140746 106.267282 106.267282 0 0 0 106.140747 106.140746zM521.315419 546.3692530000001a154.385494 154.385494 0 1 1 154.385494 154.396997 154.385494 154.385494 0 0 1-154.385494-154.396997z m260.537744 0a106.140746 106.140746 0 1 0-106.140747 106.140746 106.267282 106.267282 0 0 0 106.129244-106.140746zM502.012918 701.364421H348.225594a154.408501 154.408501 0 1 1 112.110948-48.244748h41.676376zM348.225594 440.826677a106.140746 106.140746 0 1 0 106.140747 106.140746 106.267282 106.267282 0 0 0-106.140747-106.140746z"  horiz-adv-x="1024" />

    
    <glyph glyph-name="XRB" unicode="&#58915;" d="M796.059711 767.634805a482.807533 482.807533 0 0 0 34.969965-28.562639 17.254917 17.254917 0 1 1 23.064073 25.663813c-11.963409 10.755565-24.571002 21.050999-37.47768 30.621726a17.256067 17.256067 0 1 1-20.556358-27.7229zM942.427421 661.160464a17.254917 17.254917 0 1 1-28.988261-18.715833 475.626037 475.626037 0 0 0 76.013661-258.559181c0-263.229511-214.145024-477.386038-477.386038-477.386038s-477.386038 214.156527-477.386038 477.386038 214.145024 477.386038 477.386038 477.386039a475.683553 475.683553 0 0 0 166.659492-29.908523 17.254917 17.254917 0 0 1 12.055436 32.335714 511.964892 511.964892 0 1 1 251.64571-202.538216zM500.552002 268.58809499999995l-82.743079 47.773113-217.515484-125.581286 300.258563-173.3544V268.58809499999995zM523.558558 749.551652v-251.162572l81.753797-47.19795 217.515484 125.581286-299.269281 172.779236zM523.558558 17.425522l311.278703 179.715713V557.136321l-217.526987-125.581286v-108.832514l-93.751716-54.134426v-251.162573zM500.552002 749.551652l-300.051504-173.239367 217.515484-125.581286 82.53602 47.658081V749.551652zM189.284802 556.227562v-345.23638l217.515484 125.592789v94.050801L189.284802 556.227562z"  horiz-adv-x="1024" />

    
    <glyph glyph-name="ZEC" unicode="&#58916;" d="M796.059711 767.634805a482.807533 482.807533 0 0 0 34.969965-28.562639 17.254917 17.254917 0 1 1 23.064073 25.663813c-11.963409 10.755565-24.571002 21.050999-37.47768 30.621726a17.256067 17.256067 0 1 1-20.556358-27.7229zM942.427421 661.160464a17.254917 17.254917 0 1 1-28.988261-18.715833 475.626037 475.626037 0 0 0 76.013661-258.559181c0-263.229511-214.145024-477.386038-477.386038-477.386038s-477.386038 214.156527-477.386038 477.386038 214.145024 477.386038 477.386038 477.386039a475.683553 475.683553 0 0 0 166.659492-29.908523 17.254917 17.254917 0 0 1 12.055436 32.335714 511.964892 511.964892 0 1 1 251.64571-202.538216zM724.831414 648.667904H572.700562v101.757997H449.362415v-101.757997H310.598372v-123.34965h237.439162L299.290649 242.64820299999997v-123.338147h150.071766v-102.793293h127.45632v102.793293h145.953592V242.64820299999997h-242.949232l245.008319 282.670051V648.667904z"  horiz-adv-x="1024" />

    
    <glyph glyph-name="ICX" unicode="&#58917;" d="M796.059711 767.634805a482.807533 482.807533 0 0 0 34.969965-28.562639 17.254917 17.254917 0 1 1 23.064073 25.663813c-11.963409 10.755565-24.571002 21.050999-37.47768 30.621726a17.256067 17.256067 0 1 1-20.556358-27.7229zM942.427421 661.160464a17.254917 17.254917 0 1 1-28.988261-18.715833 475.626037 475.626037 0 0 0 76.013661-258.559181c0-263.229511-214.145024-477.386038-477.386038-477.386038s-477.386038 214.156527-477.386038 477.386038 214.145024 477.386038 477.386038 477.386039a475.683553 475.683553 0 0 0 166.659492-29.908523 17.254917 17.254917 0 0 1 12.055436 32.335714 511.964892 511.964892 0 1 1 251.64571-202.538216zM746.897858 615.57603m-42.793215-42.793215a60.518746 60.518746 0 1 1 85.586431 85.586431 60.518746 60.518746 0 1 1-85.586431-85.586431ZM279.520066 148.19228899999996m-42.793215-42.793215a60.518746 60.518746 0 1 1 85.586431 85.586431 60.518746 60.518746 0 1 1-85.586431-85.586431ZM411.677676 485.09129a144.82627 144.82627 0 0 0 179.56617 20.130737l63.072473 63.06097c-91.151975 69.019668-221.564638 62.048682-304.710331-21.097012s-90.1857-213.558357-21.120019-304.710331l63.049467 63.049466a144.82627 144.82627 0 0 0 20.14224 179.56617zM678.473203 218.261253c83.180203 83.145694 90.208706 213.60437 21.131522 304.710332l-63.049467-63.049467A144.803264 144.803264 0 0 0 436.904365 260.213708l-63.106984-63.014957c91.151975-69.100191 221.576141-62.117701 304.675822 21.062502z"  horiz-adv-x="1024" />

    
    <glyph glyph-name="STEEN" unicode="&#58918;" d="M796.059711 767.634805a482.807533 482.807533 0 0 0 34.969965-28.562639 17.254917 17.254917 0 1 1 23.064073 25.663813c-11.963409 10.755565-24.571002 21.050999-37.47768 30.621726a17.256067 17.256067 0 1 1-20.556358-27.7229zM942.427421 661.160464a17.254917 17.254917 0 1 1-28.988261-18.715833 475.626037 475.626037 0 0 0 76.013661-258.559181c0-263.229511-214.145024-477.386038-477.386038-477.386038s-477.386038 214.156527-477.386038 477.386038 214.145024 477.386038 477.386038 477.386039a475.683553 475.683553 0 0 0 166.659492-29.908523 17.254917 17.254917 0 0 1 12.055436 32.335714 511.964892 511.964892 0 1 1 251.64571-202.538216zM519.877509 22.34892500000001c46.726315 34.417808 139.38522 123.752265 138.131363 181.406695-1.783008 82.190922-89.576026 235.8172-132.368221 328.038979-41.492324 89.472497-36.246829 146.218167-22.166816 202.894818a6.901967 6.901967 0 0 1-10.836088 7.166542c-110.086371-82.674059-116.988338-136.532407-118.081149-166.901061-2.87582-80.522946 159.700009-342.418077 162.575828-407.216042 2.220133-49.843704-15.184327-108.22284-26.595579-138.361428a6.096737 6.096737 0 0 1 9.340662-7.028503zM637.176435 532.795384c-2.300656-62.968944 124.810567-267.600757 127.053706-318.203676 1.736995-38.961603-11.871383-84.5721-20.786423-108.130814a4.762357 4.762357 0 0 1 7.281575-5.533077c36.511404 26.906167 108.92454 96.708058 107.946761 141.766399-1.391897 64.234305-70.00895 184.259507-103.44898 256.362054-32.427741 69.916924-28.321071 114.273564-17.323937 158.561184a5.383534 5.383534 0 0 1-8.466412 5.602097c-86.01001-64.556396-91.405047-106.6814-92.25629-130.424167zM287.453776 100.93932099999995c36.511404 26.906167 108.92454 96.708058 107.946761 141.766398-1.4034 64.234305-70.00895 184.259507-103.437476 256.362054-32.427741 69.916924-28.321071 114.273564-17.323936 158.561185a5.383534 5.383534 0 0 1-8.466413 5.602096c-86.033016-64.5679-91.428054-106.692904-92.279296-130.43567-2.300656-62.968944 124.810567-267.600757 127.053706-318.203676 1.736995-38.961603-11.871383-84.5721-20.786424-108.130814a4.762357 4.762357 0 0 1 7.293078-5.521573z"  horiz-adv-x="1024" />

    
    <glyph glyph-name="WTC" unicode="&#58920;" d="M796.059711 767.634805a482.807533 482.807533 0 0 0 34.969965-28.562639 17.254917 17.254917 0 1 1 23.064073 25.663813c-11.963409 10.755565-24.571002 21.050999-37.47768 30.621726a17.256067 17.256067 0 1 1-20.556358-27.7229zM942.427421 661.160464a17.254917 17.254917 0 1 1-28.988261-18.715833 475.626037 475.626037 0 0 0 76.013661-258.559181c0-263.229511-214.145024-477.386038-477.386038-477.386038s-477.386038 214.156527-477.386038 477.386038 214.145024 477.386038 477.386038 477.386039a475.683553 475.683553 0 0 0 166.659492-29.908523 17.254917 17.254917 0 0 1 12.055436 32.335714 511.964892 511.964892 0 1 1 251.64571-202.538216zM729.352202 370.20805299999995l8.972557 25.307211 64.337834 32.209179-42.516116 65.591691-81.0636-32.209178-35.004475-94.25786c-19.877664-1.679479-40.606571-3.980134-62.014172-6.901967l-38.087354 99.894466h-68.168425l-48.63586-130.274623q-18.922892-4.831377-36.971535-9.996349l-51.431156 140.938162h-83.617328l59.575477-165.440144c-99.917473-36.683954-163.139489-79.292095-156.444582-111.857876 7.143536-34.900946 92.601388-48.900435 211.131165-39.927878l9.950336-27.607867 59.195869 16.104589 7.54615 19.935181c26.95218 3.830592 54.928153 8.650465 83.513798 14.49413 195.049582 39.904871 344.994811 112.202974 334.906437 161.49452-5.452554 26.883161-57.435867 41.365788-135.17502 42.504613zM211.992273 196.12894600000004c-4.785364 23.374661 38.374936 53.812335 108.890029 81.753797l40.871147-113.502844c-85.30831-4.267716-144.561695 6.614385-149.761176 31.749047z m194.635464 78.417847l-10.583016 28.999764q11.72184 3.450983 23.938322 6.77543z m118.943895-88.379685c-24.329433-4.980919-48.118212-9.122099-71.032742-12.446547l54.732597 143.307837 48.129715-123.936317q-15.655961-3.612029-31.841074-6.924973z m86.654193 94.833024l-23.915315 62.727375c16.978838 2.151113 33.359506 3.830592 49.084487 5.038436z m66.834045-52.615994l43.275332 122.04978c50.982528-2.73778 83.97393-13.504848 87.700992-31.956107 5.256998-25.732833-47.589061-60.012601-130.987827-90.093673zM633.230811 558.137106a30.863295 30.863295 0 0 1-42.562129 5.751639l-49.717168 33.359506a26.377017 26.377017 0 1 1-51.419652-2.013073l-91.543087-77.071963a19.314004 19.314004 0 0 1-13.401319-0.621177l-91.681126 63.636134a27.009697 27.009697 0 1 1-13.596874-15.598445l93.625179-64.993521v-0.839739a19.302501 19.302501 0 1 1 38.409446 2.622747l90.979426 76.611832a26.377017 26.377017 0 0 1 27.400808 1.081308l49.464096-33.209964a30.886302 30.886302 0 1 1 60.748811-8.224844l75.254445 23.328648a59.276392 59.276392 0 1 1-6.901967 19.429037z m-365.884765 20.10773a11.583801 11.583801 0 1 0 11.583801 11.583801 11.583801 11.583801 0 0 0-11.583801-11.583801z m499.242267 32.818852a19.946684 19.946684 0 1 0-19.946684-19.946684 19.946684 19.946684 0 0 0 19.992697 19.946684z"  horiz-adv-x="1024" />

    
    <glyph glyph-name="PPT" unicode="&#58921;" d="M796.059711 767.634805a482.807533 482.807533 0 0 0 34.969965-28.562639 17.254917 17.254917 0 1 1 23.064073 25.663813c-11.963409 10.755565-24.571002 21.050999-37.47768 30.621726a17.256067 17.256067 0 1 1-20.556358-27.7229zM942.427421 661.160464a17.254917 17.254917 0 1 1-28.988261-18.715833 475.626037 475.626037 0 0 0 76.013661-258.559181c0-263.229511-214.145024-477.386038-477.386038-477.386038s-477.386038 214.156527-477.386038 477.386038 214.145024 477.386038 477.386038 477.386039a475.683553 475.683553 0 0 0 166.659492-29.908523 17.254917 17.254917 0 0 1 12.055436 32.335714 511.964892 511.964892 0 1 1 251.64571-202.538216zM498.22834 694.197878m-73.436927 0a73.436927 73.436927 0 1 1 146.873854 0 73.436927 73.436927 0 1 1-146.873854 0ZM321.96361 484.136518v-314.545634h97.225706v407.101009h-4.658827a92.555375 92.555375 0 0 1-92.566879-92.555375zM546.484591 169.59088399999996h52.454948a114.710689 114.710689 0 0 1 114.710688 114.710688V461.981205a114.710689 114.710689 0 0 1-114.710688 114.710688H449.960585v-577.740635h95.822306z m-0.7017 310.588507h52.696517a18.646814 18.646814 0 0 0 18.646813-18.646814v-176.747867a18.646814 18.646814 0 0 0-18.646813-18.646814H545.782891z"  horiz-adv-x="1024" />

    
    <glyph glyph-name="WAVES" unicode="&#58922;" d="M796.059711 767.634805a482.807533 482.807533 0 0 0 34.969965-28.562639 17.254917 17.254917 0 1 1 23.064073 25.663813c-11.963409 10.755565-24.571002 21.050999-37.47768 30.621726a17.256067 17.256067 0 1 1-20.556358-27.7229zM942.427421 661.160464a17.254917 17.254917 0 1 1-28.988261-18.715833 475.626037 475.626037 0 0 0 76.013661-258.559181c0-263.229511-214.145024-477.386038-477.386038-477.386038s-477.386038 214.156527-477.386038 477.386038 214.145024 477.386038 477.386038 477.386039a475.683553 475.683553 0 0 0 166.659492-29.908523 17.254917 17.254917 0 0 1 12.055436 32.335714 511.964892 511.964892 0 1 1 251.64571-202.538216zM656.122334 394.629512a44.667229 44.667229 0 0 0-63.1645 0l-55.813905 55.813905a32.56578 32.56578 0 0 1-46.013112 0l-55.813905-55.813905a44.667229 44.667229 0 0 0-63.164499 0l-55.767892 55.767892a32.56578 32.56578 0 0 1-46.013112 0l-65.568685-65.568685a27.607867 27.607867 0 0 1 0-39.007616l264.575394-264.575394a63.268029 63.268029 0 0 1 89.530013 0l264.575395 264.575394a27.607867 27.607867 0 0 1 0 39.007616l-65.568685 65.568685a32.56578 32.56578 0 0 1-46.013112 0zM469.343609 683.982968L306.76778 521.395636a19.049428 19.049428 0 0 1 0-26.929174l78.555886-78.555886a25.962899 25.962899 0 0 1 36.70696 0l55.986454 55.986455a51.040045 51.040045 0 0 0 72.18307 0l55.986454-55.986455a25.962899 25.962899 0 0 1 36.70696 0l78.555886 78.555886a19.049428 19.049428 0 0 1 0 26.929174L558.839112 683.982968a63.268029 63.268029 0 0 1-89.495503 0z"  horiz-adv-x="1024" />

    
    <glyph glyph-name="BCN" unicode="&#58923;" d="M796.059711 767.634805a482.807533 482.807533 0 0 0 34.969965-28.562639 17.254917 17.254917 0 1 1 23.064073 25.663813c-11.963409 10.755565-24.571002 21.050999-37.47768 30.621726a17.256067 17.256067 0 1 1-20.556358-27.7229zM942.427421 661.160464a17.254917 17.254917 0 1 1-28.988261-18.715833 475.626037 475.626037 0 0 0 76.013661-258.559181c0-263.229511-214.145024-477.386038-477.386038-477.386038s-477.386038 214.156527-477.386038 477.386038 214.145024 477.386038 477.386038 477.386039a475.683553 475.683553 0 0 0 166.659492-29.908523 17.254917 17.254917 0 0 1 12.055436 32.335714 511.964892 511.964892 0 1 1 251.64571-202.538216zM321.871584 694.025329v-259.974083H159.376279v-101.688978h462.305241c115.320362 0 96.443483-157.249811-2.093597-157.249811H449.753526V248.480365H321.871584v-178.208784h306.102229c127.893445 0 207.565149 81.7653 207.565148 165.647204 0 56.607631-18.865376 159.343407-148.863921 159.343407 83.824387-0.011503 132.138155 62.888421 132.138155 140.466528 0 58.701228-35.660162 157.261314-178.300809 157.261314-117.333436 0-318.640801 1.035295-318.640802 1.035295z m272.55867-261.009378H447.65993V589.1844530000001h163.542103c94.349886 0 109.028069-156.168503-16.771779-156.168502z"  horiz-adv-x="1024" />

    
    <glyph glyph-name="STRAT" unicode="&#58924;" d="M796.059711 767.634805a482.807533 482.807533 0 0 0 34.969965-28.562639 17.254917 17.254917 0 1 1 23.064073 25.663813c-11.963409 10.755565-24.571002 21.050999-37.47768 30.621726a17.256067 17.256067 0 1 1-20.556358-27.7229zM942.427421 661.160464a17.254917 17.254917 0 1 1-28.988261-18.715833 475.626037 475.626037 0 0 0 76.013661-258.559181c0-263.229511-214.145024-477.386038-477.386038-477.386038s-477.386038 214.156527-477.386038 477.386038 214.145024 477.386038 477.386038 477.386039a475.683553 475.683553 0 0 0 166.659492-29.908523 17.254917 17.254917 0 0 1 12.055436 32.335714 511.964892 511.964892 0 1 1 251.64571-202.538216zM495.571083 729.19085l-347.629063-219.965682a21.419104 21.419104 0 0 1-10.019355-18.290212c0-2.381179 1.150328-102.896822 1.150328-102.896822a27.906953 27.906953 0 0 1 12.550076-23.340151L490.521143 140.924715a35.349573 35.349573 0 0 1 39.203172-0.149543l331.466956 218.41274v-67.811824a1.460916 1.460916 0 0 0-0.655686-1.219347L516.276983 63.28909199999998a10.939617 10.939617 0 0 0-12.170468 0.092026L159.387782 291.43360499999994l-13.516352-20.418319 344.649713-227.96046a35.33807 35.33807 0 0 1 39.203172-0.149543l344.304615 226.76412a25.882376 25.882376 0 0 1 11.664324 21.660672v75.104903a20.579364 20.579364 0 0 1-31.89859 17.185897L516.276983 161.216498a10.939617 10.939617 0 0 0-12.181971 0.092026L165.104911 385.127804a3.450983 3.450983 0 0 0-1.564446 2.921833V463.131533l327.96996-203.895603a35.234541 35.234541 0 0 1 37.236111-0.10353l341.647358 209.877308a26.031918 26.031918 0 0 1 0.414118 44.115071L533.612423 729.087321a35.556632 35.556632 0 0 1-38.04134 0.103529z m362.790382-238.002822a1.449413 1.449413 0 0 0-0.747713-1.311374L515.931885 280.02235299999995a10.882101 10.882101 0 0 0-11.503278 0L164.989878 491.049988l343.671935 217.411955a10.974127 10.974127 0 0 0 11.744847 0L857.636759 492.510905a1.449413 1.449413 0 0 0 0.724706-1.322877z"  horiz-adv-x="1024" />

    
    <glyph glyph-name="XVG" unicode="&#58925;" d="M796.059711 767.634805a482.807533 482.807533 0 0 0 34.969965-28.562639 17.254917 17.254917 0 1 1 23.064073 25.663813c-11.963409 10.755565-24.571002 21.050999-37.47768 30.621726a17.256067 17.256067 0 1 1-20.556358-27.7229zM942.427421 661.160464a17.254917 17.254917 0 1 1-28.988261-18.715833 475.626037 475.626037 0 0 0 76.013661-258.559181c0-263.229511-214.145024-477.386038-477.386038-477.386038s-477.386038 214.156527-477.386038 477.386038 214.145024 477.386038 477.386038 477.386039a475.683553 475.683553 0 0 0 166.659492-29.908523 17.254917 17.254917 0 0 1 12.055436 32.335714 511.964892 511.964892 0 1 1 251.64571-202.538216zM516.069924 110.17645300000004l-220.333787 468.75858h-32.163166l252.496953-537.203084 252.496953 537.203084H736.392208l-220.322284-468.75858zM516.069924 151.588254l233.033406 495.791283H283.036518l233.033406-495.791283z"  horiz-adv-x="1024" />

    
    <glyph glyph-name="MKR" unicode="&#58926;" d="M796.059711 767.634805a482.807533 482.807533 0 0 0 34.969965-28.562639 17.254917 17.254917 0 1 1 23.064073 25.663813c-11.963409 10.755565-24.571002 21.050999-37.47768 30.621726a17.256067 17.256067 0 1 1-20.556358-27.7229zM942.427421 661.160464a17.254917 17.254917 0 1 1-28.988261-18.715833 475.626037 475.626037 0 0 0 76.013661-258.559181c0-263.229511-214.145024-477.386038-477.386038-477.386038s-477.386038 214.156527-477.386038 477.386038 214.145024 477.386038 477.386038 477.386039a475.683553 475.683553 0 0 0 166.659492-29.908523 17.254917 17.254917 0 0 1 12.055436 32.335714 511.964892 511.964892 0 1 1 251.64571-202.538216zM461.544386 147.51609299999996a23.938322 23.938322 0 0 1 23.938322 23.938322V398.954745a23.984335 23.984335 0 0 1-9.398178 19.037925L225.612154 609.94787a22.626948 22.626948 0 0 1-36.384869-17.956617v-420.536838a23.938322 23.938322 0 0 1 47.86514 0V541.710425l200.525143-153.672291v-216.583719a23.938322 23.938322 0 0 1 23.926818-23.938322zM812.785477 147.51609299999996a23.938322 23.938322 0 0 1 23.938322 23.938322V591.9912529999999a22.626948 22.626948 0 0 1-36.384868 17.956617L549.855052 417.981166a23.984335 23.984335 0 0 1-9.421185-19.026421v-227.50033a23.938322 23.938322 0 0 1 47.86514 0V388.038134l200.605665 153.672291v-370.25601a23.938322 23.938322 0 0 1 23.880805-23.938322z"  horiz-adv-x="1024" />

    
    <glyph glyph-name="SC" unicode="&#58927;" d="M796.059711 767.634805a482.807533 482.807533 0 0 0 34.969965-28.562639 17.254917 17.254917 0 1 1 23.064073 25.663813c-11.963409 10.755565-24.571002 21.050999-37.47768 30.621726a17.256067 17.256067 0 1 1-20.556358-27.7229zM942.427421 661.160464a17.254917 17.254917 0 1 1-28.988261-18.715833 475.626037 475.626037 0 0 0 76.013661-258.559181c0-263.229511-214.145024-477.386038-477.386038-477.386038s-477.386038 214.156527-477.386038 477.386038 214.145024 477.386038 477.386038 477.386039a475.683553 475.683553 0 0 0 166.659492-29.908523 17.254917 17.254917 0 0 1 12.055436 32.335714 511.964892 511.964892 0 1 1 251.64571-202.538216zM479.339957 520.4408639999999c-54.065407-21.51113-95.776293 5.521573-129.089786 38.835066-33.612578 33.635585-26.400023 35.936241-26.204467 61.853126v0.345099 0.172549 0.483138a49.107494 49.107494 0 1 1-49.751678-49.751678h0.655687c37.270621 0 34.256762 0.448628 68.099406-33.359506 28.447607-28.447607 53.386713-62.738878 31.058851-124.384945a221.714181 221.714181 0 0 1-21.177535-93.349102c-0.931766-123.959324 100.676689-224.313922 224.636013-224.313921h182.580029a37.960817 37.960817 0 0 1 37.960818 37.960817V317.59205899999995c0 123.959324-100.412114 225.567779-224.313922 224.636013a221.702677 221.702677 0 0 1-94.453416-21.787208z m230.629221-200.283574v-98.307014a36.683954 36.683954 0 0 0-36.683953-36.683954h-98.341524c-76.117191 0-138.787049 61.531034-138.234892 137.636722a136.61293 136.61293 0 0 0 135.623648 135.577635c76.105687 0.563661 137.636722-62.117701 137.636721-138.223389z"  horiz-adv-x="1024" />

    
    <glyph glyph-name="BTS" unicode="&#58928;" d="M796.059711 767.634805a482.807533 482.807533 0 0 0 34.969965-28.562639 17.254917 17.254917 0 1 1 23.064073 25.663813c-11.963409 10.755565-24.571002 21.050999-37.47768 30.621726a17.256067 17.256067 0 1 1-20.556358-27.7229zM942.427421 661.160464a17.254917 17.254917 0 1 1-28.988261-18.715833 475.626037 475.626037 0 0 0 76.013661-258.559181c0-263.229511-214.145024-477.386038-477.386038-477.386038s-477.386038 214.156527-477.386038 477.386038 214.145024 477.386038 477.386038 477.386039a475.683553 475.683553 0 0 0 166.659492-29.908523 17.254917 17.254917 0 0 1 12.055436 32.335714 511.964892 511.964892 0 1 1 251.64571-202.538216zM450.133134 209.17366400000003a75.070392 75.070392 0 0 0-11.583801 28.114011H297.461628a214.800711 214.800711 0 0 1 52.915079-127.881942zM499.217622 177.16004099999998a75.035883 75.035883 0 0 0-27.964469 11.181186l-99.917473-99.882963a214.800711 214.800711 0 0 1 127.881942-52.305405zM528.930589 466.548006v-141.363783a75.093399 75.093399 0 0 0 26.089434-11.181187l99.767931 99.767931a214.800711 214.800711 0 0 1-125.857365 52.777039zM450.708298 294.493477L296.989994 448.200278v-181.257152H438.802405a75.081896 75.081896 0 0 0 11.905893 27.550351zM727.937299 237.27617199999997H586.861097a75.012876 75.012876 0 0 0-10.537003-26.45754l99.97499-99.974989a214.777704 214.777704 0 0 1 51.638215 126.432529zM528.930589 36.32540800000004a214.812214 214.812214 0 0 1 126.536058 53.40972l-99.698911 99.698911a75.093399 75.093399 0 0 0-26.837147-11.79086zM499.217622 553.4322649999999l-202.227628 176.621331v-239.912366l175.079892-175.079892a75.012876 75.012876 0 0 0 27.147736 10.652035zM575.794944 292.883018a75.047386 75.047386 0 0 0 10.801578-25.939892h141.260254a214.800711 214.800711 0 0 1-52.178869 125.811352z"  horiz-adv-x="1024" />

    
    <glyph glyph-name="DOGE" unicode="&#58929;" d="M796.059711 767.634805a482.807533 482.807533 0 0 0 34.969965-28.562639 17.254917 17.254917 0 1 1 23.064073 25.663813c-11.963409 10.755565-24.571002 21.050999-37.47768 30.621726a17.256067 17.256067 0 1 1-20.556358-27.7229zM942.427421 661.160464a17.254917 17.254917 0 1 1-28.988261-18.715833 475.626037 475.626037 0 0 0 76.013661-258.559181c0-263.229511-214.145024-477.386038-477.386038-477.386038s-477.386038 214.156527-477.386038 477.386038 214.145024 477.386038 477.386038 477.386039a475.683553 475.683553 0 0 0 166.659492-29.908523 17.254917 17.254917 0 0 1 12.055436 32.335714 511.964892 511.964892 0 1 1 251.64571-202.538216zM293.435481 703.204945v-284.130967h-75.921635v-70.169996h75.921635v-284.130967h193.830235c220.862938 0 319.215965 111.006633 319.215965 319.215965 0 169.098187-92.601388 319.215965-319.215965 319.215965z m395.712764-319.215965c0-130.711748-66.719013-200.41011-184.627612-200.41011h-89.150405V348.90398200000004h131.13737v70.169996h-131.13737V584.387586h82.731576c120.933962 0 191.046442-94.246357 191.046441-200.398606z"  horiz-adv-x="1024" />

    
    <glyph glyph-name="AE" unicode="&#58930;" d="M796.059711 767.634805a482.807533 482.807533 0 0 0 34.969965-28.562639 17.254917 17.254917 0 1 1 23.064073 25.663813c-11.963409 10.755565-24.571002 21.050999-37.47768 30.621726a17.256067 17.256067 0 1 1-20.556358-27.7229zM942.427421 661.160464a17.254917 17.254917 0 1 1-28.988261-18.715833 475.626037 475.626037 0 0 0 76.013661-258.559181c0-263.229511-214.145024-477.386038-477.386038-477.386038s-477.386038 214.156527-477.386038 477.386038 214.145024 477.386038 477.386038 477.386039a475.683553 475.683553 0 0 0 166.659492-29.908523 17.254917 17.254917 0 0 1 12.055436 32.335714 511.964892 511.964892 0 1 1 251.64571-202.538216zM535.901575 460.359243l29.448392-42.332063c29.448392 51.534686 79.775233 103.138391 147.241959 103.13839a136.440381 136.440381 0 0 0 135.991753-127.571353l-169.098187 0.506144v-37.190098h209.35966a174.412701 174.412701 0 0 1 2.300655 27.987476c0 98.39904-80.051312 178.450352-178.450352 178.450352-77.509087 0-127.099719-40.411016-176.79388-102.988848zM310.264777 522.085833a136.003256 136.003256 0 0 0 102.873815-46.990891c39.939381-38.662517 122.762983-182.211924 172.457144-219.022414 34.969965-25.767343 73.620979-47.922656 125.155665-47.853636 78.739938 0.115033 146.908364 50.177299 171.007732 120.600366h-44.977818c-21.050999-45.82906-67.432216-76.404773-122.360368-76.404772-46.438733 0-93.866749 36.81049-113.974479 55.215734-20.119233 20.130737-116.079579 171.134267-169.454788 211.660316-34.969965 29.448392-73.828038 45.012327-120.78442 45.012327-98.39904 0-178.450352-80.051312-178.450352-178.450352s80.051312-178.450352 178.450352-178.450352c78.751441 0 124.407952 41.331278 179.623687 103.90911l-29.390876 42.332063c-36.81049-53.37521-84.894192-104.058653-150.175294-104.058653a136.267832 136.267832 0 0 0 0 272.535663z"  horiz-adv-x="1024" />

    
    <glyph glyph-name="REP" unicode="&#58931;" d="M796.059711 767.634805a482.807533 482.807533 0 0 0 34.969965-28.562639 17.254917 17.254917 0 1 1 23.064073 25.663813c-11.963409 10.755565-24.571002 21.050999-37.47768 30.621726a17.256067 17.256067 0 1 1-20.556358-27.7229zM942.427421 661.160464a17.254917 17.254917 0 1 1-28.988261-18.715833 475.626037 475.626037 0 0 0 76.013661-258.559181c0-263.229511-214.145024-477.386038-477.386038-477.386038s-477.386038 214.156527-477.386038 477.386038 214.145024 477.386038 477.386038 477.386039a475.683553 475.683553 0 0 0 166.659492-29.908523 17.254917 17.254917 0 0 1 12.055436 32.335714 511.964892 511.964892 0 1 1 251.64571-202.538216zM489.232776 741.08524L199.166118 222.50596299999995a27.607867 27.607867 0 0 1 9.973342-37.190098l289.572017-172.664203a27.607867 27.607867 0 0 1 28.298064 0L816.604566 185.32736799999998a27.607867 27.607867 0 0 1 9.984845 37.178595L537.477524 741.062233a27.607867 27.607867 0 0 1-48.244748 0.023007z m131.355932-405.674603c3.761572-32.404734 23.673746-72.470652 56.665148-89.472497l82.443993-41.273761-223.370652-133.196457v80.166345c0 5.372031 11.813867 22.546425 31.72604 29.471398 32.209178 11.215696 58.896784 33.992187 76.266734 63.187506l-30.115582 42.297554c-10.35295-27.205253-31.518982-49.107494-57.907502-61.439008-58.666718-27.366298-63.981232-50.982528-65.051037-73.528953v-81.27066L261.893493 207.11457700000005l77.532094 38.81206c15.667465 7.339091 39.111145-0.897256 55.434296-19.843155a158.745237 158.745237 0 0 1 77.520591-49.671154l26.031918 40.583565c-26.733618 3.600526-50.223312 17.128381-67.466725 36.258332-24.513485 27.193749-71.136271 53.800831-111.69683 32.991401l-46.013112-23.006556L491.234347 652.93562v-152.395427c0-15.034784-27.814926-30.621726-27.814927-30.621726a153.591768 153.591768 0 0 1-104.242705-145.435944q0-4.417259 0.241569-8.765498l47.577558-15.563935a108.774997 108.774997 0 0 0-2.73778 24.329433c0 40.088924 21.499627 75.542027 54.065406 93.855245 17.059361 9.582231 77.946212 29.597934 77.946212 82.202425V651.037579l219.712611-394.148318-58.666718 29.356365c-17.093871 10.088375-29.068784 35.004475-32.70382 59.69051-8.846021 60.081621-51.672725 109.108592-108.705977 125.857365l-26.45754-40.192453c48.451807-7.534647 85.446349-47.105924 91.140472-96.190411z"  horiz-adv-x="1024" />

    
    <glyph glyph-name="KMD" unicode="&#58932;" d="M796.059711 767.634805a482.807533 482.807533 0 0 0 34.969965-28.562639 17.254917 17.254917 0 1 1 23.064073 25.663813c-11.963409 10.755565-24.571002 21.050999-37.47768 30.621726a17.256067 17.256067 0 1 1-20.556358-27.7229zM942.427421 661.160464a17.254917 17.254917 0 1 1-28.988261-18.715833 475.626037 475.626037 0 0 0 76.013661-258.559181c0-263.229511-214.145024-477.386038-477.386038-477.386038s-477.386038 214.156527-477.386038 477.386038 214.145024 477.386038 477.386038 477.386039a475.683553 475.683553 0 0 0 166.659492-29.908523 17.254917 17.254917 0 0 1 12.055436 32.335714 511.964892 511.964892 0 1 1 251.64571-202.538216zM419.752977 273.62653l80.522946-33.359506a31.96761 31.96761 0 0 1 24.467473 0l80.522946 33.359506a31.96761 31.96761 0 0 1 17.254917 17.254917l33.359506 80.522947a31.96761 31.96761 0 0 1 0 24.467472l-33.359506 80.522946a31.96761 31.96761 0 0 1-17.254917 17.254917l-80.522946 33.359507a31.96761 31.96761 0 0 1-24.467473 0l-80.522946-33.359507a31.96761 31.96761 0 0 1-17.254917-17.254917l-33.359506-80.522946a31.96761 31.96761 0 0 1 0-24.467472l33.359506-80.522947a31.96761 31.96761 0 0 1 17.254917-17.254917zM495.824155 740.072951l-223.508692-92.578381a43.608927 43.608927 0 0 1-21.557144-19.348514l109.69526-94.556945a43.597424 43.597424 0 0 0 15.19583 10.560009l120.163242 49.774684a43.62043 43.62043 0 0 0 33.359507 0l120.197752-49.774684a43.597424 43.597424 0 0 0 16.104589-11.560795l109.430684 94.32688a43.608927 43.608927 0 0 1-22.201327 20.579365l-223.508692 92.578381a43.62043 43.62043 0 0 1-33.371009 0zM722.74932 400.381151a43.62043 43.62043 0 0 0 0-33.359506l-49.774684-120.186249a43.62043 43.62043 0 0 0-23.604726-23.604727l-120.163243-49.774684a43.62043 43.62043 0 0 0-33.359506 0l-120.186249 49.774684a43.62043 43.62043 0 0 0-23.604726 23.604727l-49.740174 120.163242a43.62043 43.62043 0 0 0 0 33.359506l46.691805 112.732125-107.693689 92.831454-85.124257-205.563579a43.62043 43.62043 0 0 1 0-33.359506l92.578381-223.508692a43.62043 43.62043 0 0 1 23.604727-23.604726l223.508692-92.578382a43.62043 43.62043 0 0 1 33.359506 0l223.508692 92.578382a43.62043 43.62043 0 0 1 23.604727 23.604726l92.578382 223.508692a43.62043 43.62043 0 0 1 0 33.359506l-84.629617 204.275212-107.693689-92.831454z"  horiz-adv-x="1024" />

    
    <glyph glyph-name="BTM" unicode="&#58933;" d="M796.059711 767.634805a482.807533 482.807533 0 0 0 34.969965-28.562639 17.254917 17.254917 0 1 1 23.064073 25.663813c-11.963409 10.755565-24.571002 21.050999-37.47768 30.621726a17.256067 17.256067 0 1 1-20.556358-27.7229zM942.427421 661.160464a17.254917 17.254917 0 1 1-28.988261-18.715833 475.626037 475.626037 0 0 0 76.013661-258.559181c0-263.229511-214.145024-477.386038-477.386038-477.386038s-477.386038 214.156527-477.386038 477.386038 214.145024 477.386038 477.386038 477.386039a475.683553 475.683553 0 0 0 166.659492-29.908523 17.254917 17.254917 0 0 1 12.055436 32.335714 511.964892 511.964892 0 1 1 251.64571-202.538216zM558.885125 671.962042l81.673274-82.823602 63.268029-11.503278 25.307212-103.529502-170.248515-163.346548 62.117701-63.268029 208.209332 207.059004-52.915078 192.104743-189.804088 52.915079-27.607867-27.607867zM249.331913 121.024044l189.401473-52.984099 27.550351 27.642378-81.500725 82.927131-63.12999 11.526285-25.261199 103.656038 169.891914 163.553607-61.991166 63.348552-207.760704-207.32358 52.800046-192.346312zM319.041778 574.759343l103.529502 25.307211 163.346548-170.248514 63.268029 62.117701-207.059004 208.209332-192.104743-52.915079-52.915079-189.804087 27.607867-27.607867 82.823602 81.673274 11.503278 63.268029zM775.652896 120.26482799999997l52.984099 189.401473-27.642378 27.55035-82.927131-81.500724-11.526284-63.12999-103.656039-25.261199-163.553607 169.891913-63.348552-61.991165 207.32358-207.760704 192.346312 52.800046z"  horiz-adv-x="1024" />

    
    <glyph glyph-name="ZRX" unicode="&#58934;" d="M796.059711 767.634805a482.807533 482.807533 0 0 0 34.969965-28.562639 17.254917 17.254917 0 1 1 23.064073 25.663813c-11.963409 10.755565-24.571002 21.050999-37.47768 30.621726a17.256067 17.256067 0 1 1-20.556358-27.7229zM942.427421 661.160464a17.254917 17.254917 0 1 1-28.988261-18.715833 475.626037 475.626037 0 0 0 76.013661-258.559181c0-263.229511-214.145024-477.386038-477.386038-477.386038s-477.386038 214.156527-477.386038 477.386038 214.145024 477.386038 477.386038 477.386039a475.683553 475.683553 0 0 0 166.659492-29.908523 17.254917 17.254917 0 0 1 12.055436 32.335714 511.964892 511.964892 0 1 1 251.64571-202.538216zM721.403437 476.958473c-18.025637-17.254917-36.729967-33.808134-58.816261-55.215735 39.47925-53.835341 117.264416-152.844055 161.344978-216.629732a358.902275 358.902275 0 0 1-79.453141 451.365624c-30.978328-21.143025-77.071963-53.030112-108.636958-76.565819 10.813081-7.937262 57.389854-36.465391 85.561382-102.954338zM416.198464 593.406156c17.899101-17.899101 35.108005-36.511404 57.65443-58.666718 55.434297 39.916375 153.718304 115.354872 218.010125 158.89478a358.902275 358.902275 0 0 1-453.965364-79.476148c21.430607-29.908523 54.698087-75.921635 79.06203-107.084015 7.523144 10.790075 34.498331 57.194298 99.238779 86.332101zM787.834867 153.21021599999995c-21.097012 30.230615-53.37521 75.921635-77.071962 106.980486-7.68419-10.698049-35.200031-56.78018-100.285578-85.124258-18.623807 19.072435-36.465391 38.91559-60.541753 62.922931-55.871421-42.562129-153.98288-121.934747-216.411169-166.176354a358.902275 358.902275 0 0 1 454.379482 81.408698zM153.440587 382.97669099999996A358.016522 358.016522 0 0 1 281.195993 108.48547099999996c30.391661 21.856228 77.612617 56.262533 109.476697 81.385692-11.008637 7.64968-58.310116 34.946959-88.172626 100.722703 18.520278 18.646814 37.811275 36.557418 60.875347 60.277176-41.503827 54.84763-118.380234 150.5434-161.667069 211.924892a357.13077 357.13077 0 0 1-48.267755-179.819243z"  horiz-adv-x="1024" />

    
    <glyph glyph-name="ARK" unicode="&#58935;" d="M796.059711 767.634805a482.807533 482.807533 0 0 0 34.969965-28.562639 17.254917 17.254917 0 1 1 23.064073 25.663813c-11.963409 10.755565-24.571002 21.050999-37.47768 30.621726a17.256067 17.256067 0 1 1-20.556358-27.7229zM942.427421 661.160464a17.254917 17.254917 0 1 1-28.988261-18.715833 475.626037 475.626037 0 0 0 76.013661-258.559181c0-263.229511-214.145024-477.386038-477.386038-477.386038s-477.386038 214.156527-477.386038 477.386038 214.145024 477.386038 477.386038 477.386039a475.683553 475.683553 0 0 0 166.659492-29.908523 17.254917 17.254917 0 0 1 12.055436 32.335714 511.964892 511.964892 0 1 1 251.64571-202.538216zM512.826 724.41699L145.445809 139.866414l367.380191 380.355888 367.38019-380.355888-367.38019 584.550576zM450.478233 367.067658h124.707037l-62.35927 64.556396-62.347767-64.556396zM350.411217 263.469136h324.829565l-57.792469 59.840052H408.203686l-57.792469-59.840052z"  horiz-adv-x="1024" />

    
    <glyph glyph-name="ARDR" unicode="&#58936;" d="M796.059711 767.634805a482.807533 482.807533 0 0 0 34.969965-28.562639 17.254917 17.254917 0 1 1 23.064073 25.663813c-11.963409 10.755565-24.571002 21.050999-37.47768 30.621726a17.256067 17.256067 0 1 1-20.556358-27.7229zM942.427421 661.160464a17.254917 17.254917 0 1 1-28.988261-18.715833 475.626037 475.626037 0 0 0 76.013661-258.559181c0-263.229511-214.145024-477.386038-477.386038-477.386038s-477.386038 214.156527-477.386038 477.386038 214.145024 477.386038 477.386038 477.386039a475.683553 475.683553 0 0 0 166.659492-29.908523 17.254917 17.254917 0 0 1 12.055436 32.335714 511.964892 511.964892 0 1 1 251.64571-202.538216zM510.996978 690.022189L205.711483 161.27401399999997h153.281179l228.639155 396.011849-76.634839 132.736326zM816.121428 161.52708600000005L641.513171 463.959769l-115.377879-65.660711 196.93612-236.771972h93.050016zM501.150172 359.93562499999996l-114.549642-198.408539 188.768792 109.166109-74.21915 89.24243z"  horiz-adv-x="1024" />

    
    <glyph glyph-name="shouzimuzhanwei" unicode="&#58939;" d="M796.059711 767.634805a482.807533 482.807533 0 0 0 34.969965-28.562639 17.254917 17.254917 0 1 1 23.064073 25.663813c-11.963409 10.755565-24.571002 21.050999-37.47768 30.621726a17.256067 17.256067 0 1 1-20.556358-27.7229zM942.427421 661.160464a17.254917 17.254917 0 1 1-28.988261-18.715833 475.626037 475.626037 0 0 0 76.013661-258.559181c0-263.229511-214.145024-477.386038-477.386038-477.386038s-477.386038 214.156527-477.386038 477.386038 214.145024 477.386038 477.386038 477.386039a475.683553 475.683553 0 0 0 166.659492-29.908523 17.254917 17.254917 0 0 1 12.055436 32.335714 511.964892 511.964892 0 1 1 251.64571-202.538216zM457.667781 738.842101h108.567938L789.077221 156.028519h-102.034076l-53.053118 146.091631H389.924977l-53.099131-146.091631h-102.034076z m-39.168661-358.338614h186.928268l-91.451061 255.487805h-3.266931z"  horiz-adv-x="1024" />

    
    <glyph glyph-name="zhanwei" unicode="&#58940;" d="M796.059711 767.634805a482.807533 482.807533 0 0 0 34.969965-28.562639 17.254917 17.254917 0 1 1 23.064073 25.663813c-11.963409 10.755565-24.571002 21.050999-37.47768 30.621726a17.256067 17.256067 0 1 1-20.556358-27.7229zM942.427421 661.160464a17.254917 17.254917 0 1 1-28.988261-18.715833 475.626037 475.626037 0 0 0 76.013661-258.559181c0-263.229511-214.145024-477.386038-477.386038-477.386038s-477.386038 214.156527-477.386038 477.386038 214.145024 477.386038 477.386038 477.386039a475.683553 475.683553 0 0 0 166.659492-29.908523 17.254917 17.254917 0 0 1 12.055436 32.335714 511.964892 511.964892 0 1 1 251.64571-202.538216zM239.49661 109.704819c-24.835577 24.835577 5.291508 96.627535 38.087354 138.821559 5.291508-13.19426 17.473479-38.581995 39.801342-60.967374s47.738604-34.509834 60.967373-39.801342c-42.194024-32.772839-113.997485-62.888421-138.856069-38.052843zM616.355502 486.828285a54.433512 54.433512 0 1 0 38.489968-15.943543 54.065407 54.065407 0 0 0-38.489968 15.943543zM797.417098 570.077509l-0.310588 0.540654a262.654347 262.654347 0 0 1-97.053157 97.06466l-0.494641 0.287582-0.126536 0.115032a1.426406 1.426406 0 0 0 0 2.024577 1.610459 1.610459 0 0 0 0.368105 0.276079h0.080523l0.207059 0.092026a75.65706 75.65706 0 0 0 99.928976-99.710414l-0.230066-0.517647a1.43791 1.43791 0 0 0-2.300655-0.287582zM338.091206 208.610003a158.653211 158.653211 0 0 0-32.910878 47.79612l-0.092026 0.230066a159.642492 159.642492 0 0 0-5.901182 15.402889 62.554826 62.554826 0 0 0 7.603667 47.324486l172.54917 230.755757a264.264806 264.264806 0 0 0 25.134663 29.103294 259.237874 259.237874 0 0 0 134.450313 71.515879c0.862746 0.172549 1.679479 0.322092 2.450199 0.460131a74.25366 74.25366 0 0 0 49.06148-8.661968c2.13961-1.322877 6.556868-4.187193 6.556869-4.187193a252.393423 252.393423 0 0 0 68.778099-67.788818s7.362098-11.273212 10.640532-17.001845a74.587255 74.587255 0 0 0 6.372816-35.959247c-0.920262-5.751639-2.00157-11.503278-3.232421-16.909819l-0.080523-0.368104a259.571469 259.571469 0 0 0-69.801891-126.29449 264.299316 264.299316 0 0 0-29.068783-25.111656l-227.764905-170.248515a62.209728 62.209728 0 0 0-50.338345-9.283145c-4.348239 1.391897-13.010207 4.77386-13.803934 5.107455a158.572688 158.572688 0 0 0-50.556907 34.10722z m372.591176 372.614182a79.073533 79.073533 0 1 1 0-111.823366 78.555886 78.555886 0 0 1 0 111.823366zM547.335834 216.558768c-13.205763-23.006556-27.607867-45.495465-43.033763-67.064111-0.494641-0.7017-2.438695-3.174905-2.898827-3.669545a19.118448 19.118448 0 0 0-21.223547-3.842095h-0.092027l-1.564446 0.862746-1.081308 0.59817c-5.245495 2.933336-10.525499 5.947195-15.759491 9.01857zM283.761224 331.787104c-3.082879 5.256998-6.096737 10.548506-9.030073 15.782498l-0.609674 1.150327-0.874249 1.57595a19.129951 19.129951 0 0 0 3.888108 21.350084c0.448628 0.414118 2.921833 2.358172 3.600526 2.829806a806.011685 806.011685 0 0 0 67.087118 43.045266zM425.009975 71.306876c11.503278 12.435044 25.801853 30.403164 42.677162 53.58227l0.517647-0.287582 2.047584-1.150328 0.552157-0.276079 0.506144-0.241569a39.594283 39.594283 0 0 1 16.63374-3.623532 40.422519 40.422519 0 0 1 28.401594 11.72184 73.206861 73.206861 0 0 1 5.107455 6.349809 824.785035 824.785035 0 0 1 56.239526 90.645831l15.851518 29.701464 98.387536 73.55196 1.150328 0.839739a284.890184 284.890184 0 0 1 31.403949 27.067213 280.80652 280.80652 0 0 1 69.019668 113.192256c6.901967-53.467236 1.529936-114.33108-15.598445-174.067603-19.33701-67.558752-51.40815-126.167953-90.231712-165.03753-45.230889-45.184876-101.401396-69.744375-166.993088-72.965292-42.527619-2.17412-78.509873 5.751639-95.672763 10.997133zM201.087165 295.218183c-5.303011 17.162891-13.171253 53.133641-11.05465 95.66126 3.266931 65.568685 27.837933 121.762198 73.022809 166.947074 39.111145 39.111145 97.996426 71.228298 165.957792 90.576812 60.162144 17.128381 121.34808 22.316359 174.964859 15.0923a280.7375 280.7375 0 0 1-114.388597-69.433786 285.338812 285.338812 0 0 1-27.12473-31.403949l-74.414705-99.537865-28.815712-15.379882a823.853269 823.853269 0 0 1-90.611321-56.21652 71.699932 71.699932 0 0 1-6.326803-5.141965 40.18095 40.18095 0 0 1-8.052294-45.12736l1.058301-2.300656 0.333595-0.356601c-23.61623-17.162891-41.894939-31.714538-54.548544-43.378862z"  horiz-adv-x="1024" />

    
    <glyph glyph-name="shouzimuzhanweiW" unicode="&#58941;" d="M796.059711 767.634805a482.807533 482.807533 0 0 0 34.969965-28.562639 17.254917 17.254917 0 1 1 23.064073 25.663813c-11.963409 10.755565-24.571002 21.050999-37.47768 30.621726a17.256067 17.256067 0 1 1-20.556358-27.7229zM942.427421 661.160464a17.254917 17.254917 0 1 1-28.988261-18.715833 475.626037 475.626037 0 0 0 76.013661-258.559181c0-263.229511-214.145024-477.386038-477.386038-477.386038s-477.386038 214.156527-477.386038 477.386038 214.145024 477.386038 477.386038 477.386039a475.683553 475.683553 0 0 0 166.659492-29.908523 17.254917 17.254917 0 0 1 12.055436 32.335714 511.964892 511.964892 0 1 1 251.64571-202.538216zM177.148843 604.817408h92.865964l94.32688-382.023863h2.818303l99.20427 382.023863h85.124257l99.20427-382.023863h2.818303l94.32688 382.023863h92.865963l-144.941303-502.336648h-87.332887l-97.777863 377.80216h-2.818303l-98.53708-377.80216h-87.919554z"  horiz-adv-x="1024" />

    
    <glyph glyph-name="XFF" unicode="&#58943;" d="M796.049957 767.661448a482.807528 482.807528 0 0 0 34.969965-28.562639 17.254917 17.254917 0 1 1 23.064072 25.663813c-11.963409 10.755565-24.571002 21.050999-37.47768 30.621726a17.254917 17.254917 0 1 1-20.556357-27.7229zM942.417665 661.175605a17.254917 17.254917 0 1 1-28.988261-18.715833A475.626031 475.626031 0 0 0 989.454568 383.889091c0-263.229508-214.145021-477.386033-477.386033-477.386033S34.682502 120.671086 34.682502 383.889091 248.827524 861.275124 512.068535 861.275124a475.683548 475.683548 0 0 0 166.65949-29.908523 17.254917 17.254917 0 0 1 12.043932 32.335715 511.964886 511.964886 0 1 1 251.645708-202.526711zM606.257375 570.236441l23.735863-23.735863-23.735863-23.734713a134.277763 134.277763 0 0 0-189.88921-0.008053l-23.742765 23.742766 23.742765 23.742765a134.277763 134.277763 0 0 0 189.88921-0.006902zM649.708706 526.64477l257.141974-257.140823a167.844328 167.844328 0 0 0-237.358636-0.008053l-19.783338 19.782187a167.844328 167.844328 0 0 0 0 237.367839zM606.267728 293.315732l23.734713-23.735864-23.734713-23.734713a134.277763 134.277763 0 0 0-189.88921-0.008052l-23.742766 23.742765 23.734714 23.735864a134.277763 134.277763 0 0 0 189.896111 0zM373.04452 526.529737a167.844328 167.844328 0 0 0 0.033359-237.385094l-19.782187-19.781036a167.844328 167.844328 0 0 0-237.393146 0.023006L373.04567 526.529737z"  horiz-adv-x="1024" />

    
    </font>
</defs>
</svg>
